<?xml version="1.0" encoding="UTF-8" standalone="no"?>
<!DOCTYPE svg PUBLIC "-//W3C//DTD SVG 1.1//EN" "http://www.w3.org/Graphics/SVG/1.1/DTD/svg11.dtd">
<svg xmlns="http://www.w3.org/2000/svg" version="1.1" viewBox="0.00 0.00 560.00 446.00">
<g stroke-width="2.00" fill="none" stroke-linecap="butt">
<path stroke="#c5c6bf" vector-effect="non-scaling-stroke" d="
  M 367.02 87.59
  Q 367.02 87.72 367.02 87.86"
/>
<path stroke="#a0a29f" vector-effect="non-scaling-stroke" d="
  M 367.02 87.86
  L 322.71 87.89"
/>
<path stroke="#d8dad2" vector-effect="non-scaling-stroke" d="
  M 322.71 87.89
  L 317.94 87.83
  A 1.33 1.33 0.0 0 1 316.63 86.37
  Q 317.39 78.60 311.42 75.67
  C 307.32 73.67 300.36 74.57 295.37 74.48
  Q 294.83 74.47 294.73 73.94
  C 293.58 67.60 292.40 61.78 284.74 61.98
  Q 275.38 62.23 265.99 62.28
  C 258.89 62.33 258.05 68.06 257.03 73.95
  Q 256.94 74.47 256.40 74.48
  C 244.77 74.70 235.32 72.02 234.76 87.26
  A 0.61 0.60 -88.6 0 1 234.15 87.85
  L 231.03 87.83"
/>
<path stroke="#a0a29f" vector-effect="non-scaling-stroke" d="
  M 231.03 87.83
  L 188.19 87.74"
/>
<path stroke="#b7b3c8" vector-effect="non-scaling-stroke" d="
  M 400.02 118.79
  Q 400.61 119.06 399.55 119.28"
/>
<path stroke="#a0a29f" vector-effect="non-scaling-stroke" d="
  M 399.55 119.28
  Q 399.77 107.06 399.65 94.78
  C 399.59 89.42 396.77 87.88 391.61 87.87
  Q 384.70 87.87 377.81 87.75"
/>
<path stroke="#c5c6bf" vector-effect="non-scaling-stroke" d="
  M 377.81 87.75
  Q 377.80 87.14 377.73 87.47"
/>
<path stroke="#7e8291" vector-effect="non-scaling-stroke" d="
  M 322.71 87.89
  L 317.49 87.99
  Q 316.85 88.00 316.81 88.65
  L 316.69 91.14"
/>
<path stroke="#a3a6b1" vector-effect="non-scaling-stroke" d="
  M 316.69 91.14
  Q 281.41 90.75 237.00 91.00
  Q 235.89 91.01 234.93 91.50"
/>
<path stroke="#7e8291" vector-effect="non-scaling-stroke" d="
  M 234.93 91.50
  L 234.73 88.65
  Q 234.69 88.02 234.06 87.99
  L 231.03 87.83"
/>
<path stroke="#6a6d7e" vector-effect="non-scaling-stroke" d="
  M 377.81 87.75
  Q 372.43 88.66 367.02 87.86"
/>
<path stroke="#6a6d7e" vector-effect="non-scaling-stroke" d="
  M 234.93 91.50
  Q 234.75 91.94 235.00 92.53"
/>
<path stroke="#7e8291" vector-effect="non-scaling-stroke" d="
  M 235.00 92.53
  L 235.02 97.03"
/>
<path stroke="#6a6d7e" vector-effect="non-scaling-stroke" d="
  M 235.02 97.03
  Q 234.87 97.51 235.01 98.40"
/>
<path stroke="#7e8291" vector-effect="non-scaling-stroke" d="
  M 235.01 98.40
  L 234.63 100.73"
/>
<path stroke="#a2a0a5" vector-effect="non-scaling-stroke" d="
  M 234.63 100.73
  L 168.21 100.65"
/>
<path stroke="#3e4055" vector-effect="non-scaling-stroke" d="
  M 168.21 100.65
  Q 164.91 100.83 165.15 107.81
  Q 165.29 112.09 165.29 112.20
  Q 165.30 205.81 165.26 299.41"
/>
<path stroke="#a1886c" vector-effect="non-scaling-stroke" d="
  M 165.26 299.41
  Q 157.64 299.04 152.25 298.19
  Q 151.79 298.12 151.95 297.54"
/>
<path stroke="#a0a29f" vector-effect="non-scaling-stroke" d="
  M 151.95 297.54
  L 151.92 149.27"
/>
<path stroke="#5c5a87" vector-effect="non-scaling-stroke" d="
  M 399.55 119.28
  L 399.62 142.98"
/>
<path stroke="#a0a29f" vector-effect="non-scaling-stroke" d="
  M 399.62 142.98
  L 399.72 224.38"
/>
<path stroke="#9a6071" vector-effect="non-scaling-stroke" d="
  M 399.72 224.38
  L 399.69 241.64
  Q 399.69 242.20 399.13 242.34
  Q 393.03 243.79 389.80 246.34"
/>
<path stroke="#9f8993" vector-effect="non-scaling-stroke" d="
  M 389.80 246.34
  Q 387.10 247.65 385.70 244.74"
/>
<path stroke="#3e4055" vector-effect="non-scaling-stroke" d="
  M 385.70 244.74
  L 386.05 244.62
  Q 386.49 244.47 386.49 244.00
  Q 386.40 174.75 386.48 105.50
  C 386.49 104.22 386.62 102.36 385.76 101.32
  Q 384.48 99.79 383.77 102.05"
/>
<path stroke="#a2a0a5" vector-effect="non-scaling-stroke" d="
  M 383.77 102.05
  Q 384.01 100.65 383.25 100.65
  Q 350.45 100.90 317.33 100.78"
/>
<path stroke="#7e8291" vector-effect="non-scaling-stroke" d="
  M 317.33 100.78
  Q 316.70 100.74 316.70 98.74"
/>
<path stroke="#6a6d7e" vector-effect="non-scaling-stroke" d="
  M 316.70 98.74
  L 316.65 97.01"
/>
<path stroke="#7e8291" vector-effect="non-scaling-stroke" d="
  M 316.65 97.01
  L 316.68 92.87"
/>
<path stroke="#6a6d7e" vector-effect="non-scaling-stroke" d="
  M 316.68 92.87
  L 316.69 91.14"
/>
<path stroke="#a3a6b1" vector-effect="non-scaling-stroke" d="
  M 316.68 92.87
  L 235.00 92.53"
/>
<path stroke="#a3a6b1" vector-effect="non-scaling-stroke" d="
  M 316.65 97.01
  L 235.02 97.03"
/>
<path stroke="#a3a6b1" vector-effect="non-scaling-stroke" d="
  M 316.70 98.74
  Q 316.53 98.78 316.38 98.66
  Q 316.20 98.50 315.95 98.50
  L 235.01 98.40"
/>
<path stroke="#dad9d8" vector-effect="non-scaling-stroke" d="
  M 317.33 100.78
  Q 316.49 101.14 316.59 104.93"
/>
<path stroke="#a3a6b1" vector-effect="non-scaling-stroke" d="
  M 316.59 104.93
  L 234.86 104.96"
/>
<path stroke="#dad9d8" vector-effect="non-scaling-stroke" d="
  M 234.86 104.96
  L 234.63 100.73"
/>
<path stroke="#9a979c" vector-effect="non-scaling-stroke" d="
  M 168.21 100.65
  L 168.21 299.66"
/>
<path stroke="#9a7f63" vector-effect="non-scaling-stroke" d="
  M 168.21 299.66
  L 165.26 299.41"
/>
<path stroke="#c7c4c5" vector-effect="non-scaling-stroke" d="
  M 234.86 104.96
  L 234.90 109.58
  Q 234.90 110.12 235.44 110.12
  L 316.08 110.11
  Q 316.67 110.11 316.66 109.52
  L 316.59 104.93"
/>
<path stroke="#9a979c" vector-effect="non-scaling-stroke" d="
  M 383.77 102.05
  L 383.76 241.62"
/>
<path stroke="#fbe0d9" vector-effect="non-scaling-stroke" d="
  M 383.76 241.62
  Q 382.56 241.45 381.45 240.49
  C 380.17 239.37 379.16 238.97 377.75 239.95
  A 1.30 1.30 0.0 0 0 377.43 241.78
  L 379.87 245.17
  A 0.35 0.35 0.0 0 1 379.57 245.73
  L 366.26 245.14
  A 0.66 0.65 -1.1 0 0 365.58 245.84
  L 365.66 246.90
  Q 365.70 247.47 366.27 247.52
  Q 368.82 247.79 371.27 248.54
  Q 372.77 249.01 371.20 249.10
  Q 369.08 249.23 366.43 249.62
  Q 365.17 249.80 364.71 250.40
  Q 364.05 251.26 364.61 252.65
  Q 364.78 253.05 365.21 253.02
  L 372.70 252.46
  A 0.23 0.23 0.0 0 1 372.79 252.90
  Q 370.36 253.69 367.98 254.39
  Q 366.25 254.90 366.78 256.36
  A 1.12 1.12 0.0 0 0 368.14 257.05
  Q 370.40 256.41 372.76 256.41
  Q 373.89 256.41 372.87 256.89
  L 370.29 258.08
  A 1.39 1.39 0.0 0 0 371.15 260.71
  Q 373.88 260.16 376.45 258.91
  Q 379.39 257.47 383.78 258.88"
/>
<path stroke="#9a979c" vector-effect="non-scaling-stroke" d="
  M 383.78 258.88
  L 383.74 388.49
  Q 383.74 389.06 383.17 389.06
  L 375.09 389.07"
/>
<path stroke="#c9b0cc" vector-effect="non-scaling-stroke" d="
  M 375.09 389.07
  L 374.47 380.65"
/>
<path stroke="#f9bbb0" vector-effect="non-scaling-stroke" d="
  M 374.47 380.65
  Q 378.37 371.36 376.21 361.76
  C 375.15 357.05 370.57 350.44 368.91 345.17
  Q 367.57 340.91 367.42 337.26
  C 366.82 322.58 360.07 296.92 338.89 305.43
  Q 338.42 305.62 338.04 305.28
  C 328.99 297.18 317.22 304.79 311.63 313.11
  Q 304.99 322.98 305.12 333.51
  Q 305.14 334.95 304.04 339.49"
/>
<path stroke="#fedfb3" vector-effect="non-scaling-stroke" d="
  M 304.04 339.49
  L 235.35 339.45
  Q 234.80 339.45 234.79 340.00
  L 234.78 344.40
  A 0.54 0.54 0.0 0 0 235.32 344.94
  L 302.15 344.79"
/>
<path stroke="#f9bbb0" vector-effect="non-scaling-stroke" d="
  M 302.15 344.79
  L 299.48 349.33"
/>
<path stroke="#fedfb3" vector-effect="non-scaling-stroke" d="
  M 299.48 349.33
  L 235.30 349.30
  Q 234.80 349.30 234.80 349.79
  L 234.77 354.03
  Q 234.76 354.72 235.45 354.72
  L 295.47 354.70"
/>
<path stroke="#f9bbb0" vector-effect="non-scaling-stroke" d="
  M 295.47 354.70
  Q 286.00 369.06 295.53 382.69"
/>
<path stroke="#c9b0cc" vector-effect="non-scaling-stroke" d="
  M 295.53 382.69
  L 295.74 389.12"
/>
<path stroke="#9a979c" vector-effect="non-scaling-stroke" d="
  M 295.74 389.12
  L 168.56 389.17
  A 0.32 0.32 0.0 0 1 168.24 388.85
  L 168.24 319.45"
/>
<path stroke="#fedfb3" vector-effect="non-scaling-stroke" d="
  M 168.24 319.45
  L 175.91 316.28"
/>
<path stroke="#ad98ac" vector-effect="non-scaling-stroke" d="
  M 175.91 316.28
  L 187.31 311.99
  A 0.31 0.31 0.0 0 0 187.36 311.44
  L 177.20 305.35"
/>
<path stroke="#fedfb3" vector-effect="non-scaling-stroke" d="
  M 177.20 305.35
  L 168.21 299.66"
/>
<path stroke="#fedfb3" vector-effect="non-scaling-stroke" d="
  M 217.57 133.31
  C 198.34 119.93 174.63 143.61 188.63 162.37
  C 199.11 176.43 219.86 172.83 225.35 156.58
  Q 228.31 147.81 222.59 138.41"
/>
<path stroke="#b3dba7" vector-effect="non-scaling-stroke" d="
  M 222.59 138.41
  Q 225.54 133.73 229.08 128.69
  C 232.49 123.83 227.05 119.74 224.05 124.02
  Q 220.78 128.69 217.57 133.31"
/>
<path stroke="#b2c36f" vector-effect="non-scaling-stroke" d="
  M 222.59 138.41
  L 221.20 140.36"
/>
<path stroke="#b3dba7" vector-effect="non-scaling-stroke" d="
  M 221.20 140.36
  L 208.25 159.52
  A 3.47 3.47 0.0 0 1 202.50 159.51
  Q 198.80 154.01 194.75 147.75
  C 193.07 145.17 195.14 141.81 198.02 142.42
  C 200.53 142.95 203.53 148.57 204.85 150.64
  A 0.60 0.60 0.0 0 0 205.85 150.66
  L 216.43 134.98"
/>
<path stroke="#b2c36f" vector-effect="non-scaling-stroke" d="
  M 216.43 134.98
  Q 217.09 134.39 217.57 133.31"
/>
<path stroke="#fedfb3" vector-effect="non-scaling-stroke" d="
  M 216.43 134.98
  Q 204.33 128.32 194.93 135.09
  C 188.67 139.59 185.31 147.78 187.58 155.23
  C 191.85 169.22 209.16 173.48 219.24 162.63
  C 224.24 157.24 225.98 147.07 221.20 140.36"
/>
<path stroke="#fedfb3" vector-effect="non-scaling-stroke" d="
  M 361.23 138.38
  A 0.39 0.39 0.0 0 0 360.84 137.99
  L 235.20 137.99
  A 0.39 0.39 0.0 0 0 234.81 138.38
  L 234.81 142.88
  A 0.39 0.39 0.0 0 0 235.20 143.27
  L 360.84 143.27
  A 0.39 0.39 0.0 0 0 361.23 142.88
  L 361.23 138.38"
/>
<path stroke="#fedfb3" vector-effect="non-scaling-stroke" d="
  M 361.23 148.18
  A 0.43 0.43 0.0 0 0 360.80 147.75
  L 235.24 147.75
  A 0.43 0.43 0.0 0 0 234.81 148.18
  L 234.81 152.68
  A 0.43 0.43 0.0 0 0 235.24 153.11
  L 360.80 153.11
  A 0.43 0.43 0.0 0 0 361.23 152.68
  L 361.23 148.18"
/>
<path stroke="#fedfb3" vector-effect="non-scaling-stroke" d="
  M 340.37 158.02
  A 0.44 0.44 0.0 0 0 339.93 157.58
  L 235.23 157.58
  A 0.44 0.44 0.0 0 0 234.79 158.02
  L 234.79 162.40
  A 0.44 0.44 0.0 0 0 235.23 162.84
  L 339.93 162.84
  A 0.44 0.44 0.0 0 0 340.37 162.40
  L 340.37 158.02"
/>
<path stroke="#fedfb3" vector-effect="non-scaling-stroke" d="
  M 217.59 200.48
  C 198.07 186.84 174.76 210.77 188.92 229.88
  C 197.94 242.04 217.45 240.69 224.21 226.74
  Q 229.43 215.97 222.48 205.64"
/>
<path stroke="#b3dba7" vector-effect="non-scaling-stroke" d="
  M 222.48 205.64
  Q 225.79 200.70 229.48 195.16
  C 232.42 190.74 226.64 187.18 223.83 191.31
  Q 220.66 195.98 217.59 200.48"
/>
<path stroke="#b2c36f" vector-effect="non-scaling-stroke" d="
  M 222.48 205.64
  L 220.96 207.86"
/>
<path stroke="#b3dba7" vector-effect="non-scaling-stroke" d="
  M 220.96 207.86
  Q 214.86 216.81 208.84 225.81
  C 206.41 229.44 203.91 228.77 201.70 225.48
  Q 198.46 220.62 195.19 215.77
  C 193.28 212.93 194.52 208.43 198.30 209.59
  C 200.67 210.32 203.53 215.87 205.01 217.95
  Q 205.39 218.48 205.75 217.94
  L 216.31 202.32"
/>
<path stroke="#b2c36f" vector-effect="non-scaling-stroke" d="
  M 216.31 202.32
  L 217.59 200.48"
/>
<path stroke="#fedfb3" vector-effect="non-scaling-stroke" d="
  M 216.31 202.32
  Q 208.48 197.10 200.50 199.56
  C 190.50 202.63 184.55 212.97 187.75 222.90
  C 192.69 238.24 212.86 240.58 221.29 226.90
  Q 226.43 218.56 221.87 208.33
  Q 221.70 207.96 221.30 207.89
  Q 221.14 207.86 220.96 207.86"
/>
<path stroke="#fedfb3" vector-effect="non-scaling-stroke" d="
  M 361.21 205.68
  A 0.64 0.64 0.0 0 0 360.57 205.04
  L 235.45 205.04
  A 0.64 0.64 0.0 0 0 234.81 205.68
  L 234.81 209.98
  A 0.64 0.64 0.0 0 0 235.45 210.62
  L 360.57 210.62
  A 0.64 0.64 0.0 0 0 361.21 209.98
  L 361.21 205.68"
/>
<path stroke="#fedfb3" vector-effect="non-scaling-stroke" d="
  M 361.22 215.43
  A 0.53 0.53 0.0 0 0 360.69 214.90
  L 235.35 214.90
  A 0.53 0.53 0.0 0 0 234.82 215.43
  L 234.82 219.81
  A 0.53 0.53 0.0 0 0 235.35 220.34
  L 360.69 220.34
  A 0.53 0.53 0.0 0 0 361.22 219.81
  L 361.22 215.43"
/>
<path stroke="#fedfb3" vector-effect="non-scaling-stroke" d="
  M 311.43 225.29
  A 0.53 0.53 0.0 0 0 310.90 224.76
  L 235.32 224.76
  A 0.53 0.53 0.0 0 0 234.79 225.29
  L 234.79 229.67
  A 0.53 0.53 0.0 0 0 235.32 230.20
  L 310.90 230.20
  A 0.53 0.53 0.0 0 0 311.43 229.67
  L 311.43 225.29"
/>
<path stroke="#fedfb3" vector-effect="non-scaling-stroke" d="
  M 217.62 267.55
  C 207.46 260.94 194.21 263.33 187.81 273.51
  C 181.34 283.81 185.13 297.56 195.87 303.12
  C 215.02 313.02 234.77 290.81 222.51 272.80"
/>
<path stroke="#b3dba7" vector-effect="non-scaling-stroke" d="
  M 222.51 272.80
  Q 225.72 267.84 229.28 262.69
  C 232.43 258.13 226.94 254.04 223.93 258.42
  Q 220.75 263.05 217.62 267.55"
/>
<path stroke="#b2c36f" vector-effect="non-scaling-stroke" d="
  M 222.51 272.80
  L 221.34 274.48"
/>
<path stroke="#b3dba7" vector-effect="non-scaling-stroke" d="
  M 221.34 274.48
  L 208.25 293.85
  A 3.45 3.45 0.0 0 1 202.55 293.86
  Q 198.98 288.65 195.26 283.01
  C 191.88 277.89 197.91 274.58 200.22 278.01
  Q 202.64 281.61 204.90 285.03
  Q 205.36 285.73 205.83 285.03
  L 216.39 269.41"
/>
<path stroke="#b2c36f" vector-effect="non-scaling-stroke" d="
  M 216.39 269.41
  L 217.62 267.55"
/>
<path stroke="#fedfb3" vector-effect="non-scaling-stroke" d="
  M 216.39 269.41
  Q 208.15 264.39 200.27 266.81
  C 185.97 271.18 181.87 290.28 194.49 299.51
  C 203.67 306.22 216.48 303.17 221.83 293.19
  Q 226.44 284.58 221.34 274.48"
/>
<path stroke="#fedfb3" vector-effect="non-scaling-stroke" d="
  M 361.23 273.12
  A 0.45 0.45 0.0 0 0 360.78 272.67
  L 235.24 272.67
  A 0.45 0.45 0.0 0 0 234.79 273.12
  L 234.79 277.50
  A 0.45 0.45 0.0 0 0 235.24 277.95
  L 360.78 277.95
  A 0.45 0.45 0.0 0 0 361.23 277.50
  L 361.23 273.12"
/>
<path stroke="#fedfb3" vector-effect="non-scaling-stroke" d="
  M 361.23 282.87
  A 0.39 0.39 0.0 0 0 360.84 282.48
  L 235.18 282.48
  A 0.39 0.39 0.0 0 0 234.79 282.87
  L 234.79 287.37
  A 0.39 0.39 0.0 0 0 235.18 287.76
  L 360.84 287.76
  A 0.39 0.39 0.0 0 0 361.23 287.37
  L 361.23 282.87"
/>
<path stroke="#fedfb3" vector-effect="non-scaling-stroke" d="
  M 249.7338 292.7530
  A 0.47 0.47 0.0 0 0 249.2646 292.2822
  L 235.2646 292.2578
  A 0.47 0.47 0.0 0 0 234.7938 292.7270
  L 234.7862 297.0670
  A 0.47 0.47 0.0 0 0 235.2554 297.5378
  L 249.2554 297.5622
  A 0.47 0.47 0.0 0 0 249.7262 297.0930
  L 249.7338 292.7530"
/>
<path stroke="#fedfb3" vector-effect="non-scaling-stroke" d="
  M 226.36 351.73
  A 20.87 20.87 0.0 0 0 205.49 330.86
  A 20.87 20.87 0.0 0 0 184.62 351.73
  A 20.87 20.87 0.0 0 0 205.49 372.60
  A 20.87 20.87 0.0 0 0 226.36 351.73"
/>
<path stroke="#fedfb3" vector-effect="non-scaling-stroke" d="
  M 287.76 359.51
  A 0.49 0.49 0.0 0 0 287.27 359.02
  L 235.29 359.02
  A 0.49 0.49 0.0 0 0 234.80 359.51
  L 234.80 363.99
  A 0.49 0.49 0.0 0 0 235.29 364.48
  L 287.27 364.48
  A 0.49 0.49 0.0 0 0 287.76 363.99
  L 287.76 359.51"
/>
<path stroke="#97808a" vector-effect="non-scaling-stroke" d="
  M 385.70 244.74
  Q 384.00 243.59 383.76 241.62"
/>
<path stroke="#b7b3c8" vector-effect="non-scaling-stroke" d="
  M 399.80 142.27
  Q 399.28 142.45 399.62 142.98"
/>
<path stroke="#fce1ad" vector-effect="non-scaling-stroke" d="
  M 151.95 297.54
  L 151.79 297.80
  Q 151.57 298.17 151.14 298.14
  L 127.78 296.08"
/>
<path stroke="#b7b3c8" vector-effect="non-scaling-stroke" d="
  M 127.78 296.08
  Q 127.71 277.60 118.10 262.04"
/>
<path stroke="#f9e2d4" vector-effect="non-scaling-stroke" d="
  M 118.10 262.04
  Q 117.32 260.15 119.00 257.57
  Q 119.27 257.15 119.77 257.24
  C 134.20 260.03 137.52 249.58 139.61 238.08"
/>
<path stroke="#ab99a7" vector-effect="non-scaling-stroke" d="
  M 139.61 238.08
  C 148.76 227.61 146.38 218.75 135.16 211.85
  C 132.58 210.26 129.80 210.47 127.41 209.38
  C 125.14 208.35 122.74 206.83 120.50 206.34
  C 110.99 204.24 102.35 214.36 97.57 221.16
  C 96.01 223.38 93.36 226.03 91.02 226.10
  C 78.89 226.47 69.39 227.29 62.67 238.59
  Q 61.66 240.28 61.32 242.14
  C 60.65 245.87 63.62 249.70 62.22 252.61
  Q 55.48 266.58 67.93 274.20"
/>
<path stroke="#b7b3c8" vector-effect="non-scaling-stroke" d="
  M 67.93 274.20
  C 67.54 280.35 71.50 286.25 75.27 291.14"
/>
<path stroke="#fce1ad" vector-effect="non-scaling-stroke" d="
  M 75.27 291.14
  L 58.60 289.80"
/>
<path stroke="#b69fa1" vector-effect="non-scaling-stroke" d="
  M 451.16 143.45
  L 451.71 146.78
  Q 451.81 147.37 452.42 147.33
  C 460.95 146.65 467.52 152.29 464.35 161.32
  A 1.76 1.74 24.2 0 0 465.16 163.43
  Q 469.86 166.01 470.31 171.03
  C 471.00 178.82 462.49 187.24 456.44 191.08
  A 1.34 1.34 0.0 0 0 455.91 191.76
  L 453.01 200.33"
/>
<path stroke="#b15e73" vector-effect="non-scaling-stroke" d="
  M 453.01 200.33
  Q 449.21 210.98 436.77 212.53
  C 427.98 213.63 417.01 211.17 411.80 203.51"
/>
<path stroke="#b69fa1" vector-effect="non-scaling-stroke" d="
  M 411.80 203.51
  C 407.48 196.99 408.80 187.39 411.40 180.51"
/>
<path stroke="#b58794" vector-effect="non-scaling-stroke" d="
  M 411.40 180.51
  Q 413.01 174.28 417.34 168.88"
/>
<path stroke="#b69fa1" vector-effect="non-scaling-stroke" d="
  M 417.34 168.88
  Q 417.23 161.52 416.89 153.65
  Q 416.75 150.41 417.93 148.70
  Q 419.69 146.16 422.95 145.43
  A 1.59 1.57 -39.7 0 1 423.90 145.51
  C 426.51 146.60 429.02 149.24 432.01 147.52
  Q 434.22 146.25 435.96 144.21"
/>
<path stroke="#b58794" vector-effect="non-scaling-stroke" d="
  M 438.07 170.74
  C 433.65 167.03 430.21 164.15 424.28 166.69
  C 420.81 168.18 418.93 169.03 418.81 173.00
  Q 418.69 177.42 418.52 182.10
  Q 418.50 182.62 419.02 182.60
  Q 432.77 181.90 444.26 189.20
  Q 444.75 189.51 445.02 189.00
  L 452.20 175.22
  A 0.90 0.90 0.0 0 0 452.16 174.32
  Q 451.11 172.65 449.63 172.29
  Q 443.91 170.91 442.14 165.91
  Q 441.93 165.31 441.61 165.86
  L 438.91 170.59
  Q 438.58 171.17 438.07 170.74"
/>
<path stroke="#b58794" vector-effect="non-scaling-stroke" d="
  M 451.12 187.76
  C 456.49 187.99 461.06 183.81 460.32 178.27
  A 1.06 1.06 0.0 0 0 459.84 177.53
  C 454.47 174.15 452.28 182.84 450.73 187.18
  Q 450.52 187.74 451.12 187.76"
/>
<path stroke="#f9e2d4" vector-effect="non-scaling-stroke" d="
  M 417.34 168.88
  Q 411.55 167.88 410.34 172.53
  C 409.73 174.85 409.55 175.98 410.70 178.20
  Q 411.28 179.30 411.40 180.51"
/>
<path stroke="#f5b9b2" vector-effect="non-scaling-stroke" d="
  M 411.80 203.51
  Q 404.85 212.83 399.72 224.38"
/>
<path stroke="#b0bfd0" vector-effect="non-scaling-stroke" d="
  M 469.51 326.93
  Q 469.13 326.70 469.14 326.50
  Q 470.26 306.36 471.48 285.80"
/>
<path stroke="#a0a29f" vector-effect="non-scaling-stroke" d="
  M 471.48 285.80
  L 471.65 281.14"
/>
<path stroke="#f5b9b2" vector-effect="non-scaling-stroke" d="
  M 471.65 281.14
  Q 473.85 255.57 470.20 229.66
  C 469.17 222.31 471.24 211.83 463.21 207.37
  Q 460.88 206.08 459.69 205.01
  Q 456.69 202.31 453.01 200.33"
/>
<path stroke="#9a6071" vector-effect="non-scaling-stroke" d="
  M 471.65 281.14
  Q 444.21 279.17 416.75 275.95
  Q 408.51 274.98 400.19 273.54
  Q 399.71 273.46 399.71 272.97
  L 399.72 262.54
  Q 399.72 261.86 399.04 261.87
  L 391.03 262.01
  A 0.46 0.46 0.0 0 1 390.56 261.52
  Q 390.69 259.17 390.06 258.64"
/>
<path stroke="#f4a0a6" vector-effect="non-scaling-stroke" d="
  M 390.06 258.64
  Q 391.44 252.15 389.80 246.34"
/>
<path stroke="#aa819a" vector-effect="non-scaling-stroke" d="
  M 139.61 238.08
  L 139.64 231.40
  Q 139.64 230.86 139.17 230.58
  Q 133.90 227.49 130.89 222.22
  Q 130.62 221.75 130.27 222.15
  Q 122.47 230.98 111.03 233.93
  Q 110.51 234.07 110.54 233.54
  C 110.99 225.64 101.31 225.54 100.63 233.70
  Q 100.49 235.39 101.86 238.60
  C 103.68 242.87 104.93 246.65 108.45 250.62
  Q 108.78 250.99 108.61 251.45
  Q 107.44 254.78 105.46 256.26"
/>
<path stroke="#67528f" vector-effect="non-scaling-stroke" d="
  M 105.46 256.26
  Q 95.49 258.63 82.11 264.40
  Q 73.34 268.18 67.93 274.20"
/>
<path stroke="#b69abc" vector-effect="non-scaling-stroke" d="
  M 118.10 262.04
  Q 117.50 265.52 117.78 267.75
  Q 118.11 270.37 116.30 271.88
  A 0.99 0.99 0.0 0 1 115.36 272.06
  Q 103.94 268.41 105.46 256.26"
/>
<path stroke="#9f8993" vector-effect="non-scaling-stroke" d="
  M 390.06 258.64
  L 386.29 258.57"
/>
<path stroke="#97808a" vector-effect="non-scaling-stroke" d="
  M 386.29 258.57
  Q 384.22 258.32 383.78 258.88"
/>
<path stroke="#b89995" vector-effect="non-scaling-stroke" d="
  M 127.78 296.08
  L 96.02 293.23
  Q 94.98 293.14 95.57 294.00
  L 103.33 305.40"
/>
<path stroke="#b69abc" vector-effect="non-scaling-stroke" d="
  M 103.33 305.40
  L 94.60 310.70"
/>
<path stroke="#b68a8e" vector-effect="non-scaling-stroke" d="
  M 94.60 310.70
  Q 92.22 309.73 89.77 306.91"
/>
<path stroke="#b89995" vector-effect="non-scaling-stroke" d="
  M 89.77 306.91
  L 75.27 291.14"
/>
<path stroke="#b7b3c8" vector-effect="non-scaling-stroke" d="
  M 89.84 276.32
  L 85.70 278.62
  Q 85.21 278.89 85.53 279.34
  L 88.71 283.91
  A 0.27 0.27 0.0 0 0 89.20 283.79
  L 90.30 276.64
  A 0.31 0.31 0.0 0 0 89.84 276.32"
/>
<path stroke="#3e4055" vector-effect="non-scaling-stroke" d="
  M 386.29 258.57
  L 386.45 393.93
  Q 386.45 394.53 385.86 394.58
  Q 377.35 395.33 368.31 394.42"
/>
<path stroke="#654f7c" vector-effect="non-scaling-stroke" d="
  M 368.31 394.42
  Q 372.54 392.20 375.09 389.07"
/>
<path stroke="#55678f" vector-effect="non-scaling-stroke" d="
  M 471.48 285.80
  Q 435.68 284.58 400.27 280.37
  Q 399.73 280.31 399.73 280.85
  L 399.71 287.98"
/>
<path stroke="#4e5d83" vector-effect="non-scaling-stroke" d="
  M 399.71 287.98
  L 399.68 385.78"
/>
<path stroke="#454059" vector-effect="non-scaling-stroke" d="
  M 399.68 385.78
  L 399.35 404.22"
/>
<path stroke="#9aa1ab" vector-effect="non-scaling-stroke" d="
  M 399.35 404.22
  L 398.61 404.86"
/>
<path stroke="#514771" vector-effect="non-scaling-stroke" d="
  M 398.61 404.86
  Q 398.33 405.36 398.02 404.93
  C 392.63 397.37 384.29 398.21 376.00 399.35
  Q 368.37 400.40 362.12 401.89"
/>
<path stroke="#9d9faa" vector-effect="non-scaling-stroke" d="
  M 362.12 401.89
  L 363.14 395.94"
/>
<path stroke="#6d5985" vector-effect="non-scaling-stroke" d="
  M 363.14 395.94
  L 368.31 394.42"
/>
<path stroke="#555e8a" vector-effect="non-scaling-stroke" d="
  M 464.98 391.59
  Q 463.63 389.80 461.18 390.23"
/>
<path stroke="#8e9fc2" vector-effect="non-scaling-stroke" d="
  M 461.18 390.23
  Q 461.38 351.79 461.58 313.50
  Q 461.59 313.38 461.54 313.28
  Q 461.40 313.00 461.39 313.33
  L 459.57 390.26"
/>
<path stroke="#555e8a" vector-effect="non-scaling-stroke" d="
  M 459.57 390.26
  L 449.95 389.84"
/>
<path stroke="#8e9fc2" vector-effect="non-scaling-stroke" d="
  M 449.95 389.84
  Q 449.29 389.37 448.71 389.99"
/>
<path stroke="#b0bfd0" vector-effect="non-scaling-stroke" d="
  M 438.77 335.81
  L 433.20 299.12
  Q 433.12 298.57 432.57 298.53
  L 422.11 297.86"
/>
<path stroke="#5e7ab3" vector-effect="non-scaling-stroke" d="
  M 422.11 297.86
  L 399.71 287.98"
/>
<path stroke="#d399a4" vector-effect="non-scaling-stroke" d="
  M 35.70 287.96
  L 34.01 307.97"
/>
<path stroke="#8e9fc2" vector-effect="non-scaling-stroke" d="
  M 41.11 288.06
  Q 40.86 288.64 40.16 288.89
  Q 39.71 289.06 39.67 289.54
  L 37.91 308.48"
/>
<path stroke="#b1a69d" vector-effect="non-scaling-stroke" d="
  M 44.70 288.79
  L 43.29 303.67"
/>
<path stroke="#af9796" vector-effect="non-scaling-stroke" d="
  M 43.29 303.67
  L 42.53 308.63"
/>
<path stroke="#a8b5c4" vector-effect="non-scaling-stroke" d="
  M 422.11 297.86
  L 418.37 338.25"
/>
<path stroke="#4d547e" vector-effect="non-scaling-stroke" d="
  M 410.61 385.98
  L 399.68 385.78"
/>
<path stroke="#fbb873" vector-effect="non-scaling-stroke" d="
  M 89.77 306.91
  Q 66.15 306.60 43.29 303.67"
/>
<path stroke="#ac8074" vector-effect="non-scaling-stroke" d="
  M 177.20 305.35
  Q 173.90 309.92 175.91 316.28"
/>
<path stroke="#9a7f63" vector-effect="non-scaling-stroke" d="
  M 168.24 319.45
  L 165.84 319.86"
/>
<path stroke="#fbb873" vector-effect="non-scaling-stroke" d="
  M 165.84 319.86
  L 166.63 313.00
  Q 166.70 312.48 166.17 312.42
  Q 137.72 309.44 108.76 307.99"
/>
<path stroke="#fbc8a1" vector-effect="non-scaling-stroke" d="
  M 108.76 307.99
  Q 105.91 307.31 103.33 305.40"
/>
<path stroke="#c47490" vector-effect="non-scaling-stroke" d="
  M 374.47 380.65
  Q 372.46 368.12 365.95 357.63
  Q 365.12 356.29 364.21 353.58
  Q 362.40 348.18 356.14 346.15"
/>
<path stroke="#f6a49e" vector-effect="non-scaling-stroke" d="
  M 356.14 346.15
  Q 361.30 342.69 361.64 336.17
  A 1.53 1.53 0.0 0 0 359.17 334.89
  L 355.33 337.90
  A 0.86 0.86 0.0 0 1 354.42 338.01
  Q 346.40 334.31 339.65 328.61
  A 0.51 0.51 0.0 0 0 338.92 328.70
  C 335.51 333.20 331.61 337.70 326.14 339.71
  Q 325.51 339.95 325.87 339.38
  L 329.40 333.91
  Q 329.83 333.24 329.05 333.43
  L 318.14 336.06
  A 0.94 0.92 55.4 0 1 317.38 335.91
  L 313.82 333.27
  A 0.61 0.61 0.0 0 0 312.96 333.40
  Q 311.52 335.44 312.25 337.96
  Q 313.76 343.19 318.37 345.00"
/>
<path stroke="#c47490" vector-effect="non-scaling-stroke" d="
  M 318.37 345.00
  Q 316.89 345.60 312.76 347.75
  Q 307.60 350.44 305.74 354.82
  Q 303.85 359.27 303.77 359.42
  Q 297.97 370.23 295.53 382.69"
/>
<path stroke="#f8a377" vector-effect="non-scaling-stroke" d="
  M 295.47 354.70
  L 299.48 349.33"
/>
<path stroke="#f8a377" vector-effect="non-scaling-stroke" d="
  M 302.15 344.79
  L 304.04 339.49"
/>
<path stroke="#f9b99a" vector-effect="non-scaling-stroke" d="
  M 94.60 310.70
  Q 96.30 311.58 96.80 313.69"
/>
<path stroke="#b68a8e" vector-effect="non-scaling-stroke" d="
  M 96.80 313.69
  L 85.17 312.82"
/>
<path stroke="#fad2a6" vector-effect="non-scaling-stroke" d="
  M 85.17 312.82
  L 58.16 310.30"
/>
<path stroke="#f9b99a" vector-effect="non-scaling-stroke" d="
  M 108.76 307.99
  Q 110.65 309.07 111.00 309.81
  A 0.52 0.51 76.5 0 1 110.55 310.55
  L 106.89 310.66
  Q 106.48 310.67 106.48 311.08
  C 106.52 313.28 110.07 313.79 111.42 315.19"
/>
<path stroke="#b69abc" vector-effect="non-scaling-stroke" d="
  M 111.42 315.19
  Q 103.00 320.73 96.80 313.69"
/>
<path stroke="#9f7965" vector-effect="non-scaling-stroke" d="
  M 165.84 319.86
  L 151.94 318.87"
/>
<path stroke="#fad2a6" vector-effect="non-scaling-stroke" d="
  M 151.94 318.87
  L 149.65 318.47"
/>
<path stroke="#f9b99a" vector-effect="non-scaling-stroke" d="
  M 149.65 318.47
  L 149.72 315.31
  A 0.47 0.47 0.0 0 0 149.01 314.89
  L 147.61 315.71
  A 0.50 0.50 0.0 0 1 146.89 315.45
  L 146.46 314.28
  A 0.58 0.58 0.0 0 0 145.41 314.19
  L 144.52 315.76
  Q 144.24 316.24 144.03 315.73
  L 143.28 313.93
  A 0.70 0.70 0.0 0 0 141.99 313.92
  L 141.16 315.88
  A 0.54 0.54 0.0 0 1 140.60 316.20
  Q 137.80 315.86 135.78 317.33"
/>
<path stroke="#b68a8e" vector-effect="non-scaling-stroke" d="
  M 135.78 317.33
  L 111.42 315.19"
/>
<path stroke="#b7b3c8" vector-effect="non-scaling-stroke" d="
  M 85.17 312.82
  Q 84.40 315.41 84.70 314.34"
/>
<path stroke="#aba0b2" vector-effect="non-scaling-stroke" d="
  M 84.70 314.34
  L 75.16 356.70"
/>
<path stroke="#b69abc" vector-effect="non-scaling-stroke" d="
  M 135.78 317.33
  Q 134.50 319.83 134.59 322.40
  Q 134.61 323.01 135.21 322.95
  L 138.05 322.69"
/>
<path stroke="#b7b3c8" vector-effect="non-scaling-stroke" d="
  M 138.05 322.69
  Q 137.00 325.54 134.54 326.97
  A 0.77 0.75 46.9 0 1 133.71 326.93
  L 126.30 321.67
  Q 125.84 321.34 125.75 321.89
  L 125.21 325.14"
/>
<path stroke="#68589a" vector-effect="non-scaling-stroke" d="
  M 125.21 325.14
  L 84.70 314.34"
/>
<path stroke="#7d798c" vector-effect="non-scaling-stroke" d="
  M 461.18 390.23
  L 459.57 390.26"
/>
<path stroke="#f9e2d4" vector-effect="non-scaling-stroke" d="
  M 149.65 318.47
  C 146.71 321.34 143.02 321.71 138.05 322.69"
/>
<path stroke="#aba0b2" vector-effect="non-scaling-stroke" d="
  M 125.21 325.14
  L 128.75 375.80"
/>
<path stroke="#a59fbd" vector-effect="non-scaling-stroke" d="
  M 128.75 375.80
  L 130.11 415.19
  Q 130.13 415.74 129.63 415.96
  L 128.18 416.59"
/>
<path stroke="#503e6c" vector-effect="non-scaling-stroke" d="
  M 128.18 416.59
  L 120.01 416.90"
/>
<path stroke="#a59fbd" vector-effect="non-scaling-stroke" d="
  M 120.01 416.90
  L 117.97 416.52
  Q 117.44 416.41 117.39 415.88
  L 115.43 394.79"
/>
<path stroke="#766b91" vector-effect="non-scaling-stroke" d="
  M 114.34 379.54
  Q 115.11 377.39 114.07 374.89"
/>
<path stroke="#aba0b2" vector-effect="non-scaling-stroke" d="
  M 113.69 371.71
  L 108.98 334.55
  Q 108.92 334.10 108.48 333.99
  L 98.77 331.61
  Q 98.11 331.45 97.94 332.10
  L 88.26 369.71"
/>
<path stroke="#a59fbd" vector-effect="non-scaling-stroke" d="
  M 80.98 392.68
  Q 77.00 404.25 72.17 415.40
  Q 71.58 416.74 70.03 416.26"
/>
<path stroke="#503e6c" vector-effect="non-scaling-stroke" d="
  M 70.03 416.26
  L 62.19 414.30"
/>
<path stroke="#a59fbd" vector-effect="non-scaling-stroke" d="
  M 62.19 414.30
  Q 62.39 408.52 64.49 401.80"
/>
<path stroke="#a0a29f" vector-effect="non-scaling-stroke" d="
  M 151.94 318.87
  L 151.89 376.29"
/>
<path stroke="#f4f9ec" vector-effect="non-scaling-stroke" d="
  M 129.05 375.67
  Q 129.56 376.00 128.75 375.80"
/>
<path stroke="#3e4055" vector-effect="non-scaling-stroke" d="
  M 165.84 319.86
  Q 166.32 319.76 165.53 320.16
  A 0.42 0.42 0.0 0 0 165.31 320.53
  L 165.28 394.23
  A 0.69 0.68 0.4 0 0 165.96 394.91
  Q 234.14 395.11 302.07 394.70
  Q 302.30 394.70 302.41 394.61
  Q 302.55 394.48 302.57 394.26"
/>
<path stroke="#6d5985" vector-effect="non-scaling-stroke" d="
  M 302.57 394.26
  L 306.13 395.94"
/>
<path stroke="#9d9faa" vector-effect="non-scaling-stroke" d="
  M 306.13 395.94
  L 306.72 400.53"
/>
<path stroke="#514771" vector-effect="non-scaling-stroke" d="
  M 306.72 400.53
  Q 306.56 400.90 306.18 401.14
  Q 305.77 401.41 305.31 401.22
  C 298.50 398.41 288.60 394.96 281.92 397.26
  Q 275.12 399.60 273.80 407.93"
/>
<path stroke="#9aa1ab" vector-effect="non-scaling-stroke" d="
  M 273.80 407.93
  Q 216.56 408.05 159.61 407.88
  Q 155.68 407.87 154.05 406.47
  Q 151.47 404.26 151.94 399.66"
/>
<path stroke="#654f7c" vector-effect="non-scaling-stroke" d="
  M 295.74 389.12
  L 302.57 394.26"
/>
<path stroke="#c699ba" vector-effect="non-scaling-stroke" d="
  M 356.14 346.15
  L 352.90 346.10
  Q 352.40 346.10 352.13 346.51
  Q 343.80 359.35 329.33 354.21
  Q 322.47 351.77 318.37 345.00"
/>
<path stroke="#fedfb3" vector-effect="non-scaling-stroke" d="
  M 223.93 351.74
  A 18.47 18.47 0.0 0 0 205.46 333.27
  A 18.47 18.47 0.0 0 0 186.99 351.74
  A 18.47 18.47 0.0 0 0 205.46 370.21
  A 18.47 18.47 0.0 0 0 223.93 351.74"
/>
<path stroke="#c4afd1" vector-effect="non-scaling-stroke" d="
  M 363.14 395.94
  L 367.22 372.78"
/>
<path stroke="#a591b8" vector-effect="non-scaling-stroke" d="
  M 367.22 372.78
  Q 365.76 370.63 364.50 370.64
  Q 334.29 370.81 304.08 370.63
  Q 303.57 370.63 303.18 370.96
  Q 302.25 371.74 302.24 373.14"
/>
<path stroke="#c4afd1" vector-effect="non-scaling-stroke" d="
  M 302.24 373.14
  L 306.13 395.94"
/>
<path stroke="#d5d8dd" vector-effect="non-scaling-stroke" d="
  M 367.22 372.78
  L 302.24 373.14"
/>
<path stroke="#a89dbd" vector-effect="non-scaling-stroke" d="
  M 362.12 401.89
  L 361.10 406.69
  Q 360.99 407.20 360.47 407.20
  Q 341.68 407.19 322.86 407.20
  C 318.21 407.21 312.43 403.88 308.09 402.14
  C 307.28 401.81 307.02 401.28 306.72 400.53"
/>
<path stroke="#d5d8dd" vector-effect="non-scaling-stroke" d="
  M 341.91 389.09
  A 6.91 6.91 0.0 0 0 335.00 382.18
  A 6.91 6.91 0.0 0 0 328.09 389.09
  A 6.91 6.91 0.0 0 0 335.00 396.00
  A 6.91 6.91 0.0 0 0 341.91 389.09"
/>
<path stroke="#a59fbd" vector-effect="non-scaling-stroke" d="
  M 273.80 407.93
  C 273.72 411.55 274.69 414.59 278.36 416.00
  Q 291.82 421.14 305.82 425.63"
/>
<path stroke="#9998a6" vector-effect="non-scaling-stroke" d="
  M 305.82 425.63
  L 302.37 430.19
  A 0.58 0.58 0.0 0 0 302.94 431.11
  Q 307.59 430.29 312.36 427.85"
/>
<path stroke="#a59fbd" vector-effect="non-scaling-stroke" d="
  M 312.36 427.85
  L 335.26 435.06
  A 0.65 0.64 -67.5 0 0 336.02 434.74
  L 337.61 431.64"
/>
<path stroke="#9998a6" vector-effect="non-scaling-stroke" d="
  M 337.61 431.64
  C 343.11 432.56 347.92 433.10 353.22 435.29
  Q 359.40 437.85 366.20 439.98
  A 0.84 0.84 0.0 0 0 367.07 438.61
  L 355.05 425.42"
/>
<path stroke="#a59fbd" vector-effect="non-scaling-stroke" d="
  M 355.05 425.42
  Q 375.07 423.18 394.48 419.65
  C 399.40 418.76 400.12 412.04 399.28 408.24
  Q 398.90 406.54 398.61 404.86"
/>
<path stroke="#9998a6" vector-effect="non-scaling-stroke" d="
  M 399.35 404.22
  Q 405.77 403.66 412.50 403.30
  Q 413.40 403.25 413.34 402.53"
/>
<path stroke="#9998a6" vector-effect="non-scaling-stroke" d="
  M 436.78 406.35
  L 431.64 408.97
  A 0.76 0.75 -60.0 0 0 432.02 410.40
  L 466.67 408.41
  Q 467.43 408.37 467.34 407.61
  L 466.95 404.25"
/>
<path stroke="#9998a6" vector-effect="non-scaling-stroke" d="
  M 62.19 414.30
  L 57.96 425.25
  Q 57.52 426.38 58.68 426.72
  Q 69.44 429.91 80.55 431.60
  A 0.44 0.44 0.0 0 0 80.87 430.80
  L 69.81 422.78
  A 1.16 1.16 0.0 0 1 69.33 421.67
  L 70.03 416.26"
/>
<path stroke="#9998a6" vector-effect="non-scaling-stroke" d="
  M 120.01 416.90
  L 118.61 427.64
  Q 118.49 428.57 119.42 428.60
  Q 130.63 429.00 141.77 427.68
  A 0.48 0.48 0.0 0 0 141.89 426.75
  L 129.15 421.88
  Q 128.73 421.71 128.68 421.27
  L 128.18 416.59"
/>
<path stroke="#7d798c" vector-effect="non-scaling-stroke" d="
  M 449.95 389.84
  Q 450.48 392.22 449.48 392.80"
/>
<path stroke="#503e6c" vector-effect="non-scaling-stroke" d="
  M 355.05 425.42
  Q 350.51 421.95 343.14 421.57
  Q 342.68 421.55 342.48 421.95
  L 337.61 431.64"
/>
<path stroke="#503e6c" vector-effect="non-scaling-stroke" d="
  M 312.36 427.85
  L 305.82 425.63"
/>
</g>
<path fill="#fafae0" d="
  M 367.02 87.59
  Q 367.02 87.72 367.02 87.86
  L 322.71 87.89
  L 317.94 87.83
  A 1.33 1.33 0.0 0 1 316.63 86.37
  Q 317.39 78.60 311.42 75.67
  C 307.32 73.67 300.36 74.57 295.37 74.48
  Q 294.83 74.47 294.73 73.94
  C 293.58 67.60 292.40 61.78 284.74 61.98
  Q 275.38 62.23 265.99 62.28
  C 258.89 62.33 258.05 68.06 257.03 73.95
  Q 256.94 74.47 256.40 74.48
  C 244.77 74.70 235.32 72.02 234.76 87.26
  A 0.61 0.60 -88.6 0 1 234.15 87.85
  L 231.03 87.83
  L 188.19 87.74
  Q 189.42 85.47 190.23 83.63
  Q 200.80 59.79 210.52 41.79
  C 218.63 26.77 229.51 16.98 246.01 12.49
  Q 269.85 6.01 294.50 4.07
  C 317.64 2.24 342.93 9.47 355.34 30.25
  Q 359.70 37.54 362.45 48.85
  Q 365.54 61.56 365.95 74.75
  Q 366.14 81.15 367.02 87.59
  Z"
/>
<path fill="#fafae0" d="
  M 400.02 118.79
  Q 400.61 119.06 399.55 119.28
  Q 399.77 107.06 399.65 94.78
  C 399.59 89.42 396.77 87.88 391.61 87.87
  Q 384.70 87.87 377.81 87.75
  Q 377.80 87.14 377.73 87.47
  Q 379.54 86.18 379.36 84.74
  Q 377.98 73.53 382.00 62.00
  C 386.62 48.78 395.92 35.41 408.42 28.36
  C 418.41 22.73 427.24 23.40 437.77 27.23
  Q 454.48 33.31 468.74 46.76
  C 478.05 55.54 481.70 64.35 482.55 77.50
  Q 483.50 92.10 479.74 105.73
  C 477.12 115.19 470.43 118.80 460.92 121.52
  Q 441.73 127.01 421.67 126.09
  Q 419.14 125.97 416.16 125.33
  C 410.15 124.03 404.98 123.08 400.02 118.79
  Z"
/>
<path fill="#b6bac4" d="
  M 322.71 87.89
  L 317.49 87.99
  Q 316.85 88.00 316.81 88.65
  L 316.69 91.14
  Q 281.41 90.75 237.00 91.00
  Q 235.89 91.01 234.93 91.50
  L 234.73 88.65
  Q 234.69 88.02 234.06 87.99
  L 231.03 87.83
  L 234.15 87.85
  A 0.61 0.60 -88.6 0 0 234.76 87.26
  C 235.32 72.02 244.77 74.70 256.40 74.48
  Q 256.94 74.47 257.03 73.95
  C 258.05 68.06 258.89 62.33 265.99 62.28
  Q 275.38 62.23 284.74 61.98
  C 292.40 61.78 293.58 67.60 294.73 73.94
  Q 294.83 74.47 295.37 74.48
  C 300.36 74.57 307.32 73.67 311.42 75.67
  Q 317.39 78.60 316.63 86.37
  A 1.33 1.33 0.0 0 0 317.94 87.83
  L 322.71 87.89
  Z
  M 285.7794 69.5755
  A 3.64 3.64 0.0 0 0 282.1267 65.9482
  L 269.6268 65.9918
  A 3.64 3.64 0.0 0 0 265.9995 69.6445
  L 266.0006 69.9645
  A 3.64 3.64 0.0 0 0 269.6533 73.5918
  L 282.1532 73.5482
  A 3.64 3.64 0.0 0 0 285.7805 69.8955
  L 285.7794 69.5755
  Z"
/>
<path fill="#fafae0" d="
  M 86.91 81.92
  C 92.06 71.55 100.83 63.74 113.24 67.56
  C 119.75 69.56 126.85 74.21 131.29 78.77
  C 137.32 84.95 138.52 93.48 137.39 101.94
  C 136.49 108.69 135.28 114.45 128.27 116.53
  C 115.11 120.43 96.34 122.67 87.54 109.08
  C 82.30 100.97 82.64 90.52 86.91 81.92
  Z"
/>
<path fill="#8f919e" d="
  M 377.73 87.47
  Q 377.80 87.14 377.81 87.75
  Q 372.43 88.66 367.02 87.86
  Q 367.02 87.72 367.02 87.59
  L 377.73 87.47
  Z"
/>
<path fill="#45495e" d="
  M 188.19 87.74
  L 231.03 87.83
  L 234.06 87.99
  Q 234.69 88.02 234.73 88.65
  L 234.93 91.50
  Q 234.75 91.94 235.00 92.53
  L 235.02 97.03
  Q 234.87 97.51 235.01 98.40
  L 234.63 100.73
  L 168.21 100.65
  Q 164.91 100.83 165.15 107.81
  Q 165.29 112.09 165.29 112.20
  Q 165.30 205.81 165.26 299.41
  Q 157.64 299.04 152.25 298.19
  Q 151.79 298.12 151.95 297.54
  L 151.92 149.27
  Q 152.04 122.24 152.03 95.30
  C 152.02 91.20 154.03 87.94 158.34 87.89
  Q 173.30 87.73 188.19 87.74
  Z"
/>
<path fill="#45495e" d="
  M 322.71 87.89
  L 367.02 87.86
  Q 372.43 88.66 377.81 87.75
  Q 384.70 87.87 391.61 87.87
  C 396.77 87.88 399.59 89.42 399.65 94.78
  Q 399.77 107.06 399.55 119.28
  L 399.62 142.98
  L 399.72 224.38
  L 399.69 241.64
  Q 399.69 242.20 399.13 242.34
  Q 393.03 243.79 389.80 246.34
  Q 387.10 247.65 385.70 244.74
  L 386.05 244.62
  Q 386.49 244.47 386.49 244.00
  Q 386.40 174.75 386.48 105.50
  C 386.49 104.22 386.62 102.36 385.76 101.32
  Q 384.48 99.79 383.77 102.05
  Q 384.01 100.65 383.25 100.65
  Q 350.45 100.90 317.33 100.78
  Q 316.70 100.74 316.70 98.74
  L 316.65 97.01
  L 316.68 92.87
  L 316.69 91.14
  L 316.81 88.65
  Q 316.85 88.00 317.49 87.99
  L 322.71 87.89
  Z"
/>
<path fill="#8f919e" d="
  M 316.69 91.14
  L 316.68 92.87
  L 235.00 92.53
  Q 234.75 91.94 234.93 91.50
  Q 235.89 91.01 237.00 91.00
  Q 281.41 90.75 316.69 91.14
  Z"
/>
<path fill="#b6bac4" d="
  M 235.00 92.53
  L 316.68 92.87
  L 316.65 97.01
  L 235.02 97.03
  L 235.00 92.53
  Z"
/>
<path fill="#8f919e" d="
  M 235.02 97.03
  L 316.65 97.01
  L 316.70 98.74
  Q 316.53 98.78 316.38 98.66
  Q 316.20 98.50 315.95 98.50
  L 235.01 98.40
  Q 234.87 97.51 235.02 97.03
  Z"
/>
<path fill="#b6bac4" d="
  M 235.01 98.40
  L 315.95 98.50
  Q 316.20 98.50 316.38 98.66
  Q 316.53 98.78 316.70 98.74
  Q 316.70 100.74 317.33 100.78
  Q 316.49 101.14 316.59 104.93
  L 234.86 104.96
  L 234.63 100.73
  L 235.01 98.40
  Z"
/>
<path fill="#36364c" d="
  M 168.21 100.65
  L 168.21 299.66
  L 165.26 299.41
  Q 165.30 205.81 165.29 112.20
  Q 165.29 112.09 165.15 107.81
  Q 164.91 100.83 168.21 100.65
  Z"
/>
<path fill="#fef7eb" d="
  M 168.21 100.65
  L 234.63 100.73
  L 234.86 104.96
  L 234.90 109.58
  Q 234.90 110.12 235.44 110.12
  L 316.08 110.11
  Q 316.67 110.11 316.66 109.52
  L 316.59 104.93
  Q 316.49 101.14 317.33 100.78
  Q 350.45 100.90 383.25 100.65
  Q 384.01 100.65 383.77 102.05
  L 383.76 241.62
  Q 382.56 241.45 381.45 240.49
  C 380.17 239.37 379.16 238.97 377.75 239.95
  A 1.30 1.30 0.0 0 0 377.43 241.78
  L 379.87 245.17
  A 0.35 0.35 0.0 0 1 379.57 245.73
  L 366.26 245.14
  A 0.66 0.65 -1.1 0 0 365.58 245.84
  L 365.66 246.90
  Q 365.70 247.47 366.27 247.52
  Q 368.82 247.79 371.27 248.54
  Q 372.77 249.01 371.20 249.10
  Q 369.08 249.23 366.43 249.62
  Q 365.17 249.80 364.71 250.40
  Q 364.05 251.26 364.61 252.65
  Q 364.78 253.05 365.21 253.02
  L 372.70 252.46
  A 0.23 0.23 0.0 0 1 372.79 252.90
  Q 370.36 253.69 367.98 254.39
  Q 366.25 254.90 366.78 256.36
  A 1.12 1.12 0.0 0 0 368.14 257.05
  Q 370.40 256.41 372.76 256.41
  Q 373.89 256.41 372.87 256.89
  L 370.29 258.08
  A 1.39 1.39 0.0 0 0 371.15 260.71
  Q 373.88 260.16 376.45 258.91
  Q 379.39 257.47 383.78 258.88
  L 383.74 388.49
  Q 383.74 389.06 383.17 389.06
  L 375.09 389.07
  L 374.47 380.65
  Q 378.37 371.36 376.21 361.76
  C 375.15 357.05 370.57 350.44 368.91 345.17
  Q 367.57 340.91 367.42 337.26
  C 366.82 322.58 360.07 296.92 338.89 305.43
  Q 338.42 305.62 338.04 305.28
  C 328.99 297.18 317.22 304.79 311.63 313.11
  Q 304.99 322.98 305.12 333.51
  Q 305.14 334.95 304.04 339.49
  L 235.35 339.45
  Q 234.80 339.45 234.79 340.00
  L 234.78 344.40
  A 0.54 0.54 0.0 0 0 235.32 344.94
  L 302.15 344.79
  L 299.48 349.33
  L 235.30 349.30
  Q 234.80 349.30 234.80 349.79
  L 234.77 354.03
  Q 234.76 354.72 235.45 354.72
  L 295.47 354.70
  Q 286.00 369.06 295.53 382.69
  L 295.74 389.12
  L 168.56 389.17
  A 0.32 0.32 0.0 0 1 168.24 388.85
  L 168.24 319.45
  L 175.91 316.28
  L 187.31 311.99
  A 0.31 0.31 0.0 0 0 187.36 311.44
  L 177.20 305.35
  L 168.21 299.66
  L 168.21 100.65
  Z
  M 217.57 133.31
  C 198.34 119.93 174.63 143.61 188.63 162.37
  C 199.11 176.43 219.86 172.83 225.35 156.58
  Q 228.31 147.81 222.59 138.41
  Q 225.54 133.73 229.08 128.69
  C 232.49 123.83 227.05 119.74 224.05 124.02
  Q 220.78 128.69 217.57 133.31
  Z
  M 361.23 138.38
  A 0.39 0.39 0.0 0 0 360.84 137.99
  L 235.20 137.99
  A 0.39 0.39 0.0 0 0 234.81 138.38
  L 234.81 142.88
  A 0.39 0.39 0.0 0 0 235.20 143.27
  L 360.84 143.27
  A 0.39 0.39 0.0 0 0 361.23 142.88
  L 361.23 138.38
  Z
  M 361.23 148.18
  A 0.43 0.43 0.0 0 0 360.80 147.75
  L 235.24 147.75
  A 0.43 0.43 0.0 0 0 234.81 148.18
  L 234.81 152.68
  A 0.43 0.43 0.0 0 0 235.24 153.11
  L 360.80 153.11
  A 0.43 0.43 0.0 0 0 361.23 152.68
  L 361.23 148.18
  Z
  M 340.37 158.02
  A 0.44 0.44 0.0 0 0 339.93 157.58
  L 235.23 157.58
  A 0.44 0.44 0.0 0 0 234.79 158.02
  L 234.79 162.40
  A 0.44 0.44 0.0 0 0 235.23 162.84
  L 339.93 162.84
  A 0.44 0.44 0.0 0 0 340.37 162.40
  L 340.37 158.02
  Z
  M 217.59 200.48
  C 198.07 186.84 174.76 210.77 188.92 229.88
  C 197.94 242.04 217.45 240.69 224.21 226.74
  Q 229.43 215.97 222.48 205.64
  Q 225.79 200.70 229.48 195.16
  C 232.42 190.74 226.64 187.18 223.83 191.31
  Q 220.66 195.98 217.59 200.48
  Z
  M 361.21 205.68
  A 0.64 0.64 0.0 0 0 360.57 205.04
  L 235.45 205.04
  A 0.64 0.64 0.0 0 0 234.81 205.68
  L 234.81 209.98
  A 0.64 0.64 0.0 0 0 235.45 210.62
  L 360.57 210.62
  A 0.64 0.64 0.0 0 0 361.21 209.98
  L 361.21 205.68
  Z
  M 361.22 215.43
  A 0.53 0.53 0.0 0 0 360.69 214.90
  L 235.35 214.90
  A 0.53 0.53 0.0 0 0 234.82 215.43
  L 234.82 219.81
  A 0.53 0.53 0.0 0 0 235.35 220.34
  L 360.69 220.34
  A 0.53 0.53 0.0 0 0 361.22 219.81
  L 361.22 215.43
  Z
  M 311.43 225.29
  A 0.53 0.53 0.0 0 0 310.90 224.76
  L 235.32 224.76
  A 0.53 0.53 0.0 0 0 234.79 225.29
  L 234.79 229.67
  A 0.53 0.53 0.0 0 0 235.32 230.20
  L 310.90 230.20
  A 0.53 0.53 0.0 0 0 311.43 229.67
  L 311.43 225.29
  Z
  M 217.62 267.55
  C 207.46 260.94 194.21 263.33 187.81 273.51
  C 181.34 283.81 185.13 297.56 195.87 303.12
  C 215.02 313.02 234.77 290.81 222.51 272.80
  Q 225.72 267.84 229.28 262.69
  C 232.43 258.13 226.94 254.04 223.93 258.42
  Q 220.75 263.05 217.62 267.55
  Z
  M 361.23 273.12
  A 0.45 0.45 0.0 0 0 360.78 272.67
  L 235.24 272.67
  A 0.45 0.45 0.0 0 0 234.79 273.12
  L 234.79 277.50
  A 0.45 0.45 0.0 0 0 235.24 277.95
  L 360.78 277.95
  A 0.45 0.45 0.0 0 0 361.23 277.50
  L 361.23 273.12
  Z
  M 361.23 282.87
  A 0.39 0.39 0.0 0 0 360.84 282.48
  L 235.18 282.48
  A 0.39 0.39 0.0 0 0 234.79 282.87
  L 234.79 287.37
  A 0.39 0.39 0.0 0 0 235.18 287.76
  L 360.84 287.76
  A 0.39 0.39 0.0 0 0 361.23 287.37
  L 361.23 282.87
  Z
  M 249.7338 292.7530
  A 0.47 0.47 0.0 0 0 249.2646 292.2822
  L 235.2646 292.2578
  A 0.47 0.47 0.0 0 0 234.7938 292.7270
  L 234.7862 297.0670
  A 0.47 0.47 0.0 0 0 235.2554 297.5378
  L 249.2554 297.5622
  A 0.47 0.47 0.0 0 0 249.7262 297.0930
  L 249.7338 292.7530
  Z
  M 226.36 351.73
  A 20.87 20.87 0.0 0 0 205.49 330.86
  A 20.87 20.87 0.0 0 0 184.62 351.73
  A 20.87 20.87 0.0 0 0 205.49 372.60
  A 20.87 20.87 0.0 0 0 226.36 351.73
  Z
  M 287.76 359.51
  A 0.49 0.49 0.0 0 0 287.27 359.02
  L 235.29 359.02
  A 0.49 0.49 0.0 0 0 234.80 359.51
  L 234.80 363.99
  A 0.49 0.49 0.0 0 0 235.29 364.48
  L 287.27 364.48
  A 0.49 0.49 0.0 0 0 287.76 363.99
  L 287.76 359.51
  Z"
/>
<path fill="#36364c" d="
  M 385.70 244.74
  Q 384.00 243.59 383.76 241.62
  L 383.77 102.05
  Q 384.48 99.79 385.76 101.32
  C 386.62 102.36 386.49 104.22 386.48 105.50
  Q 386.40 174.75 386.49 244.00
  Q 386.49 244.47 386.05 244.62
  L 385.70 244.74
  Z"
/>
<path fill="#8f919e" d="
  M 316.59 104.93
  L 316.66 109.52
  Q 316.67 110.11 316.08 110.11
  L 235.44 110.12
  Q 234.90 110.12 234.90 109.58
  L 234.86 104.96
  L 316.59 104.93
  Z"
/>
<path fill="#736bb0" d="
  M 400.02 118.79
  L 399.80 142.27
  Q 399.28 142.45 399.62 142.98
  L 399.55 119.28
  Q 400.61 119.06 400.02 118.79
  Z"
/>
<path fill="#67be63" d="
  M 222.59 138.41
  L 221.20 140.36
  L 208.25 159.52
  A 3.47 3.47 0.0 0 1 202.50 159.51
  Q 198.80 154.01 194.75 147.75
  C 193.07 145.17 195.14 141.81 198.02 142.42
  C 200.53 142.95 203.53 148.57 204.85 150.64
  A 0.60 0.60 0.0 0 0 205.85 150.66
  L 216.43 134.98
  Q 217.09 134.39 217.57 133.31
  Q 220.78 128.69 224.05 124.02
  C 227.05 119.74 232.49 123.83 229.08 128.69
  Q 225.54 133.73 222.59 138.41
  Z"
/>
<path fill="#fafae0" d="
  M 151.92 149.27
  L 151.95 297.54
  L 151.79 297.80
  Q 151.57 298.17 151.14 298.14
  L 127.78 296.08
  Q 127.71 277.60 118.10 262.04
  Q 117.32 260.15 119.00 257.57
  Q 119.27 257.15 119.77 257.24
  C 134.20 260.03 137.52 249.58 139.61 238.08
  C 148.76 227.61 146.38 218.75 135.16 211.85
  C 132.58 210.26 129.80 210.47 127.41 209.38
  C 125.14 208.35 122.74 206.83 120.50 206.34
  C 110.99 204.24 102.35 214.36 97.57 221.16
  C 96.01 223.38 93.36 226.03 91.02 226.10
  C 78.89 226.47 69.39 227.29 62.67 238.59
  Q 61.66 240.28 61.32 242.14
  C 60.65 245.87 63.62 249.70 62.22 252.61
  Q 55.48 266.58 67.93 274.20
  C 67.54 280.35 71.50 286.25 75.27 291.14
  L 58.60 289.80
  Q 57.73 284.24 57.07 279.24
  C 54.04 256.36 36.39 241.86 25.99 222.28
  C 13.81 199.35 13.15 170.58 26.10 147.57
  C 31.94 137.19 41.71 128.50 53.37 125.64
  C 75.33 120.24 97.18 134.04 115.39 144.14
  C 126.94 150.55 139.10 153.20 151.92 149.27
  Z"
/>
<path fill="#fdc77a" d="
  M 217.57 133.31
  Q 217.09 134.39 216.43 134.98
  Q 204.33 128.32 194.93 135.09
  C 188.67 139.59 185.31 147.78 187.58 155.23
  C 191.85 169.22 209.16 173.48 219.24 162.63
  C 224.24 157.24 225.98 147.07 221.20 140.36
  L 222.59 138.41
  Q 228.31 147.81 225.35 156.58
  C 219.86 172.83 199.11 176.43 188.63 162.37
  C 174.63 143.61 198.34 119.93 217.57 133.31
  Z"
/>
<path fill="#fef7eb" d="
  M 216.43 134.98
  L 205.85 150.66
  A 0.60 0.60 0.0 0 1 204.85 150.64
  C 203.53 148.57 200.53 142.95 198.02 142.42
  C 195.14 141.81 193.07 145.17 194.75 147.75
  Q 198.80 154.01 202.50 159.51
  A 3.47 3.47 0.0 0 0 208.25 159.52
  L 221.20 140.36
  C 225.98 147.07 224.24 157.24 219.24 162.63
  C 209.16 173.48 191.85 169.22 187.58 155.23
  C 185.31 147.78 188.67 139.59 194.93 135.09
  Q 204.33 128.32 216.43 134.98
  Z"
/>
<rect fill="#fdc77a" x="234.81" y="137.99" width="126.42" height="5.28" rx="0.39"/>
<path fill="#724461" d="
  M 451.16 143.45
  L 451.71 146.78
  Q 451.81 147.37 452.42 147.33
  C 460.95 146.65 467.52 152.29 464.35 161.32
  A 1.76 1.74 24.2 0 0 465.16 163.43
  Q 469.86 166.01 470.31 171.03
  C 471.00 178.82 462.49 187.24 456.44 191.08
  A 1.34 1.34 0.0 0 0 455.91 191.76
  L 453.01 200.33
  Q 449.21 210.98 436.77 212.53
  C 427.98 213.63 417.01 211.17 411.80 203.51
  C 407.48 196.99 408.80 187.39 411.40 180.51
  Q 413.01 174.28 417.34 168.88
  Q 417.23 161.52 416.89 153.65
  Q 416.75 150.41 417.93 148.70
  Q 419.69 146.16 422.95 145.43
  A 1.59 1.57 -39.7 0 1 423.90 145.51
  C 426.51 146.60 429.02 149.24 432.01 147.52
  Q 434.22 146.25 435.96 144.21
  C 441.02 140.44 446.01 137.47 451.16 143.45
  Z
  M 438.07 170.74
  C 433.65 167.03 430.21 164.15 424.28 166.69
  C 420.81 168.18 418.93 169.03 418.81 173.00
  Q 418.69 177.42 418.52 182.10
  Q 418.50 182.62 419.02 182.60
  Q 432.77 181.90 444.26 189.20
  Q 444.75 189.51 445.02 189.00
  L 452.20 175.22
  A 0.90 0.90 0.0 0 0 452.16 174.32
  Q 451.11 172.65 449.63 172.29
  Q 443.91 170.91 442.14 165.91
  Q 441.93 165.31 441.61 165.86
  L 438.91 170.59
  Q 438.58 171.17 438.07 170.74
  Z
  M 451.12 187.76
  C 456.49 187.99 461.06 183.81 460.32 178.27
  A 1.06 1.06 0.0 0 0 459.84 177.53
  C 454.47 174.15 452.28 182.84 450.73 187.18
  Q 450.52 187.74 451.12 187.76
  Z"
/>
<path fill="#fafae0" d="
  M 399.80 142.27
  L 399.93 143.14
  Q 400.00 143.65 400.51 143.58
  Q 403.62 143.17 405.76 143.51
  Q 420.67 145.83 435.96 144.21
  Q 434.22 146.25 432.01 147.52
  C 429.02 149.24 426.51 146.60 423.90 145.51
  A 1.59 1.57 -39.7 0 0 422.95 145.43
  Q 419.69 146.16 417.93 148.70
  Q 416.75 150.41 416.89 153.65
  Q 417.23 161.52 417.34 168.88
  Q 411.55 167.88 410.34 172.53
  C 409.73 174.85 409.55 175.98 410.70 178.20
  Q 411.28 179.30 411.40 180.51
  C 408.80 187.39 407.48 196.99 411.80 203.51
  Q 404.85 212.83 399.72 224.38
  L 399.62 142.98
  Q 399.28 142.45 399.80 142.27
  Z"
/>
<path fill="#fafae0" d="
  M 469.51 326.93
  Q 469.13 326.70 469.14 326.50
  Q 470.26 306.36 471.48 285.80
  L 471.65 281.14
  Q 473.85 255.57 470.20 229.66
  C 469.17 222.31 471.24 211.83 463.21 207.37
  Q 460.88 206.08 459.69 205.01
  Q 456.69 202.31 453.01 200.33
  L 455.91 191.76
  A 1.34 1.34 0.0 0 1 456.44 191.08
  C 462.49 187.24 471.00 178.82 470.31 171.03
  Q 469.86 166.01 465.16 163.43
  A 1.76 1.74 24.2 0 1 464.35 161.32
  C 467.52 152.29 460.95 146.65 452.42 147.33
  Q 451.81 147.37 451.71 146.78
  L 451.16 143.45
  Q 457.21 143.20 468.73 144.21
  C 502.84 147.21 518.04 175.94 524.60 205.81
  C 534.55 251.05 518.53 301.68 475.77 324.55
  Q 473.05 326.01 469.51 326.93
  Z"
/>
<rect fill="#fdc77a" x="234.81" y="147.75" width="126.42" height="5.36" rx="0.43"/>
<rect fill="#fdc77a" x="234.79" y="157.58" width="105.58" height="5.26" rx="0.44"/>
<path fill="#f8c9c7" d="
  M 438.91 170.59
  L 441.61 165.86
  Q 441.93 165.31 442.14 165.91
  Q 443.91 170.91 449.63 172.29
  Q 451.11 172.65 452.16 174.32
  A 0.90 0.90 0.0 0 1 452.20 175.22
  L 445.02 189.00
  Q 444.75 189.51 444.26 189.20
  Q 432.77 181.90 419.02 182.60
  Q 418.50 182.62 418.52 182.10
  Q 418.69 177.42 418.81 173.00
  C 418.93 169.03 420.81 168.18 424.28 166.69
  C 430.21 164.15 433.65 167.03 438.07 170.74
  Q 438.58 171.17 438.91 170.59
  Z"
/>
<path fill="#f8c9c7" d="
  M 417.34 168.88
  Q 413.01 174.28 411.40 180.51
  Q 411.28 179.30 410.70 178.20
  C 409.55 175.98 409.73 174.85 410.34 172.53
  Q 411.55 167.88 417.34 168.88
  Z"
/>
<path fill="#f8c9c7" d="
  M 460.32 178.27
  C 461.06 183.81 456.49 187.99 451.12 187.76
  Q 450.52 187.74 450.73 187.18
  C 452.28 182.84 454.47 174.15 459.84 177.53
  A 1.06 1.06 0.0 0 1 460.32 178.27
  Z"
/>
<path fill="#67be63" d="
  M 222.48 205.64
  L 220.96 207.86
  Q 214.86 216.81 208.84 225.81
  C 206.41 229.44 203.91 228.77 201.70 225.48
  Q 198.46 220.62 195.19 215.77
  C 193.28 212.93 194.52 208.43 198.30 209.59
  C 200.67 210.32 203.53 215.87 205.01 217.95
  Q 205.39 218.48 205.75 217.94
  L 216.31 202.32
  L 217.59 200.48
  Q 220.66 195.98 223.83 191.31
  C 226.64 187.18 232.42 190.74 229.48 195.16
  Q 225.79 200.70 222.48 205.64
  Z"
/>
<path fill="#fdc77a" d="
  M 217.59 200.48
  L 216.31 202.32
  Q 208.48 197.10 200.50 199.56
  C 190.50 202.63 184.55 212.97 187.75 222.90
  C 192.69 238.24 212.86 240.58 221.29 226.90
  Q 226.43 218.56 221.87 208.33
  Q 221.70 207.96 221.30 207.89
  Q 221.14 207.86 220.96 207.86
  L 222.48 205.64
  Q 229.43 215.97 224.21 226.74
  C 217.45 240.69 197.94 242.04 188.92 229.88
  C 174.76 210.77 198.07 186.84 217.59 200.48
  Z"
/>
<path fill="#fef7eb" d="
  M 216.31 202.32
  L 205.75 217.94
  Q 205.39 218.48 205.01 217.95
  C 203.53 215.87 200.67 210.32 198.30 209.59
  C 194.52 208.43 193.28 212.93 195.19 215.77
  Q 198.46 220.62 201.70 225.48
  C 203.91 228.77 206.41 229.44 208.84 225.81
  Q 214.86 216.81 220.96 207.86
  Q 221.14 207.86 221.30 207.89
  Q 221.70 207.96 221.87 208.33
  Q 226.43 218.56 221.29 226.90
  C 212.86 240.58 192.69 238.24 187.75 222.90
  C 184.55 212.97 190.50 202.63 200.50 199.56
  Q 208.48 197.10 216.31 202.32
  Z"
/>
<path fill="#ef7784" d="
  M 453.01 200.33
  Q 456.69 202.31 459.69 205.01
  Q 460.88 206.08 463.21 207.37
  C 471.24 211.83 469.17 222.31 470.20 229.66
  Q 473.85 255.57 471.65 281.14
  Q 444.21 279.17 416.75 275.95
  Q 408.51 274.98 400.19 273.54
  Q 399.71 273.46 399.71 272.97
  L 399.72 262.54
  Q 399.72 261.86 399.04 261.87
  L 391.03 262.01
  A 0.46 0.46 0.0 0 1 390.56 261.52
  Q 390.69 259.17 390.06 258.64
  Q 391.44 252.15 389.80 246.34
  Q 393.03 243.79 399.13 242.34
  Q 399.69 242.20 399.69 241.64
  L 399.72 224.38
  Q 404.85 212.83 411.80 203.51
  C 417.01 211.17 427.98 213.63 436.77 212.53
  Q 449.21 210.98 453.01 200.33
  Z"
/>
<rect fill="#fdc77a" x="234.81" y="205.04" width="126.40" height="5.58" rx="0.64"/>
<path fill="#5b386d" d="
  M 139.61 238.08
  L 139.64 231.40
  Q 139.64 230.86 139.17 230.58
  Q 133.90 227.49 130.89 222.22
  Q 130.62 221.75 130.27 222.15
  Q 122.47 230.98 111.03 233.93
  Q 110.51 234.07 110.54 233.54
  C 110.99 225.64 101.31 225.54 100.63 233.70
  Q 100.49 235.39 101.86 238.60
  C 103.68 242.87 104.93 246.65 108.45 250.62
  Q 108.78 250.99 108.61 251.45
  Q 107.44 254.78 105.46 256.26
  Q 95.49 258.63 82.11 264.40
  Q 73.34 268.18 67.93 274.20
  Q 55.48 266.58 62.22 252.61
  C 63.62 249.70 60.65 245.87 61.32 242.14
  Q 61.66 240.28 62.67 238.59
  C 69.39 227.29 78.89 226.47 91.02 226.10
  C 93.36 226.03 96.01 223.38 97.57 221.16
  C 102.35 214.36 110.99 204.24 120.50 206.34
  C 122.74 206.83 125.14 208.35 127.41 209.38
  C 129.80 210.47 132.58 210.26 135.16 211.85
  C 146.38 218.75 148.76 227.61 139.61 238.08
  Z"
/>
<rect fill="#fdc77a" x="234.82" y="214.90" width="126.40" height="5.44" rx="0.53"/>
<path fill="#f8c9c7" d="
  M 139.61 238.08
  C 137.52 249.58 134.20 260.03 119.77 257.24
  Q 119.27 257.15 119.00 257.57
  Q 117.32 260.15 118.10 262.04
  Q 117.50 265.52 117.78 267.75
  Q 118.11 270.37 116.30 271.88
  A 0.99 0.99 0.0 0 1 115.36 272.06
  Q 103.94 268.41 105.46 256.26
  Q 107.44 254.78 108.61 251.45
  Q 108.78 250.99 108.45 250.62
  C 104.93 246.65 103.68 242.87 101.86 238.60
  Q 100.49 235.39 100.63 233.70
  C 101.31 225.54 110.99 225.64 110.54 233.54
  Q 110.51 234.07 111.03 233.93
  Q 122.47 230.98 130.27 222.15
  Q 130.62 221.75 130.89 222.22
  Q 133.90 227.49 139.17 230.58
  Q 139.64 230.86 139.64 231.40
  L 139.61 238.08
  Z"
/>
<rect fill="#fdc77a" x="234.79" y="224.76" width="76.64" height="5.44" rx="0.53"/>
<path fill="#f8c9c7" d="
  M 383.76 241.62
  Q 384.00 243.59 385.70 244.74
  Q 387.10 247.65 389.80 246.34
  Q 391.44 252.15 390.06 258.64
  L 386.29 258.57
  Q 384.22 258.32 383.78 258.88
  Q 379.39 257.47 376.45 258.91
  Q 373.88 260.16 371.15 260.71
  A 1.39 1.39 0.0 0 1 370.29 258.08
  L 372.87 256.89
  Q 373.89 256.41 372.76 256.41
  Q 370.40 256.41 368.14 257.05
  A 1.12 1.12 0.0 0 1 366.78 256.36
  Q 366.25 254.90 367.98 254.39
  Q 370.36 253.69 372.79 252.90
  A 0.23 0.23 0.0 0 0 372.70 252.46
  L 365.21 253.02
  Q 364.78 253.05 364.61 252.65
  Q 364.05 251.26 364.71 250.40
  Q 365.17 249.80 366.43 249.62
  Q 369.08 249.23 371.20 249.10
  Q 372.77 249.01 371.27 248.54
  Q 368.82 247.79 366.27 247.52
  Q 365.70 247.47 365.66 246.90
  L 365.58 245.84
  A 0.66 0.65 -1.1 0 1 366.26 245.14
  L 379.57 245.73
  A 0.35 0.35 0.0 0 0 379.87 245.17
  L 377.43 241.78
  A 1.30 1.30 0.0 0 1 377.75 239.95
  C 379.16 238.97 380.17 239.37 381.45 240.49
  Q 382.56 241.45 383.76 241.62
  Z"
/>
<path fill="#736bb0" d="
  M 105.46 256.26
  Q 103.94 268.41 115.36 272.06
  A 0.99 0.99 0.0 0 0 116.30 271.88
  Q 118.11 270.37 117.78 267.75
  Q 117.50 265.52 118.10 262.04
  Q 127.71 277.60 127.78 296.08
  L 96.02 293.23
  Q 94.98 293.14 95.57 294.00
  L 103.33 305.40
  L 94.60 310.70
  Q 92.22 309.73 89.77 306.91
  L 75.27 291.14
  C 71.50 286.25 67.54 280.35 67.93 274.20
  Q 73.34 268.18 82.11 264.40
  Q 95.49 258.63 105.46 256.26
  Z
  M 89.84 276.32
  L 85.70 278.62
  Q 85.21 278.89 85.53 279.34
  L 88.71 283.91
  A 0.27 0.27 0.0 0 0 89.20 283.79
  L 90.30 276.64
  A 0.31 0.31 0.0 0 0 89.84 276.32
  Z"
/>
<path fill="#67be63" d="
  M 222.51 272.80
  L 221.34 274.48
  L 208.25 293.85
  A 3.45 3.45 0.0 0 1 202.55 293.86
  Q 198.98 288.65 195.26 283.01
  C 191.88 277.89 197.91 274.58 200.22 278.01
  Q 202.64 281.61 204.90 285.03
  Q 205.36 285.73 205.83 285.03
  L 216.39 269.41
  L 217.62 267.55
  Q 220.75 263.05 223.93 258.42
  C 226.94 254.04 232.43 258.13 229.28 262.69
  Q 225.72 267.84 222.51 272.80
  Z"
/>
<path fill="#36364c" d="
  M 386.29 258.57
  L 386.45 393.93
  Q 386.45 394.53 385.86 394.58
  Q 377.35 395.33 368.31 394.42
  Q 372.54 392.20 375.09 389.07
  L 383.17 389.06
  Q 383.74 389.06 383.74 388.49
  L 383.78 258.88
  Q 384.22 258.32 386.29 258.57
  Z"
/>
<path fill="#45495e" d="
  M 386.29 258.57
  L 390.06 258.64
  Q 390.69 259.17 390.56 261.52
  A 0.46 0.46 0.0 0 0 391.03 262.01
  L 399.04 261.87
  Q 399.72 261.86 399.72 262.54
  L 399.71 272.97
  Q 399.71 273.46 400.19 273.54
  Q 408.51 274.98 416.75 275.95
  Q 444.21 279.17 471.65 281.14
  L 471.48 285.80
  Q 435.68 284.58 400.27 280.37
  Q 399.73 280.31 399.73 280.85
  L 399.71 287.98
  L 399.68 385.78
  L 399.35 404.22
  L 398.61 404.86
  Q 398.33 405.36 398.02 404.93
  C 392.63 397.37 384.29 398.21 376.00 399.35
  Q 368.37 400.40 362.12 401.89
  L 363.14 395.94
  L 368.31 394.42
  Q 377.35 395.33 385.86 394.58
  Q 386.45 394.53 386.45 393.93
  L 386.29 258.57
  Z"
/>
<path fill="#fdc77a" d="
  M 217.62 267.55
  L 216.39 269.41
  Q 208.15 264.39 200.27 266.81
  C 185.97 271.18 181.87 290.28 194.49 299.51
  C 203.67 306.22 216.48 303.17 221.83 293.19
  Q 226.44 284.58 221.34 274.48
  L 222.51 272.80
  C 234.77 290.81 215.02 313.02 195.87 303.12
  C 185.13 297.56 181.34 283.81 187.81 273.51
  C 194.21 263.33 207.46 260.94 217.62 267.55
  Z"
/>
<path fill="#fef7eb" d="
  M 216.39 269.41
  L 205.83 285.03
  Q 205.36 285.73 204.90 285.03
  Q 202.64 281.61 200.22 278.01
  C 197.91 274.58 191.88 277.89 195.26 283.01
  Q 198.98 288.65 202.55 293.86
  A 3.45 3.45 0.0 0 0 208.25 293.85
  L 221.34 274.48
  Q 226.44 284.58 221.83 293.19
  C 216.48 303.17 203.67 306.22 194.49 299.51
  C 181.87 290.28 185.97 271.18 200.27 266.81
  Q 208.15 264.39 216.39 269.41
  Z"
/>
<rect fill="#fdc77a" x="234.79" y="272.67" width="126.44" height="5.28" rx="0.45"/>
<path fill="#fafae0" d="
  M 89.84 276.32
  A 0.31 0.31 0.0 0 1 90.30 276.64
  L 89.20 283.79
  A 0.27 0.27 0.0 0 1 88.71 283.91
  L 85.53 279.34
  Q 85.21 278.89 85.70 278.62
  L 89.84 276.32
  Z"
/>
<path fill="#6584bf" d="
  M 471.48 285.80
  Q 470.26 306.36 469.14 326.50
  Q 469.13 326.70 469.51 326.93
  Q 469.08 327.51 469.03 328.25
  Q 468.12 342.25 467.41 356.26
  Q 466.53 373.80 464.98 391.59
  Q 463.63 389.80 461.18 390.23
  Q 461.38 351.79 461.58 313.50
  Q 461.59 313.38 461.54 313.28
  Q 461.40 313.00 461.39 313.33
  L 459.57 390.26
  L 449.95 389.84
  Q 449.29 389.37 448.71 389.99
  C 448.32 389.75 447.83 389.08 447.75 388.60
  Q 443.64 363.17 439.34 337.77
  Q 439.17 336.75 438.77 335.81
  L 433.20 299.12
  Q 433.12 298.57 432.57 298.53
  L 422.11 297.86
  L 399.71 287.98
  L 399.73 280.85
  Q 399.73 280.31 400.27 280.37
  Q 435.68 284.58 471.48 285.80
  Z"
/>
<rect fill="#fdc77a" x="234.79" y="282.48" width="126.44" height="5.28" rx="0.39"/>
<path fill="#ef7784" d="
  M 35.70 287.96
  L 34.01 307.97
  Q 29.92 308.13 26.99 306.77
  C 21.01 304.01 19.09 297.00 22.89 291.67
  Q 26.91 286.02 35.70 287.96
  Z"
/>
<path fill="#b6bac4" d="
  M 35.70 287.96
  L 41.11 288.06
  Q 40.86 288.64 40.16 288.89
  Q 39.71 289.06 39.67 289.54
  L 37.91 308.48
  L 34.01 307.97
  L 35.70 287.96
  Z"
/>
<path fill="#6584bf" d="
  M 41.11 288.06
  L 44.70 288.79
  L 43.29 303.67
  L 42.53 308.63
  Q 40.01 309.28 37.91 308.48
  L 39.67 289.54
  Q 39.71 289.06 40.16 288.89
  Q 40.86 288.64 41.11 288.06
  Z"
/>
<path fill="#5670a7" d="
  M 399.71 287.98
  L 422.11 297.86
  L 418.37 338.25
  L 413.90 384.99
  Q 413.85 385.53 413.32 385.60
  L 410.61 385.98
  L 399.68 385.78
  L 399.71 287.98
  Z"
/>
<path fill="#fdc77a" d="
  M 44.70 288.79
  L 58.60 289.80
  L 75.27 291.14
  L 89.77 306.91
  Q 66.15 306.60 43.29 303.67
  L 44.70 288.79
  Z"
/>
<rect fill="#fdc77a" x="-7.47" y="-2.64" transform="translate(242.26,294.91) rotate(0.1)" width="14.94" height="5.28" rx="0.47"/>
<path fill="#fdc77a" d="
  M 127.78 296.08
  L 151.14 298.14
  Q 151.57 298.17 151.79 297.80
  L 151.95 297.54
  Q 151.79 298.12 152.25 298.19
  Q 157.64 299.04 165.26 299.41
  L 168.21 299.66
  L 177.20 305.35
  Q 173.90 309.92 175.91 316.28
  L 168.24 319.45
  L 165.84 319.86
  L 166.63 313.00
  Q 166.70 312.48 166.17 312.42
  Q 137.72 309.44 108.76 307.99
  Q 105.91 307.31 103.33 305.40
  L 95.57 294.00
  Q 94.98 293.14 96.02 293.23
  L 127.78 296.08
  Z"
/>
<path fill="#fafae0" d="
  M 438.77 335.81
  Q 429.28 337.64 419.79 337.63
  Q 419.32 337.63 418.93 337.89
  L 418.37 338.25
  L 422.11 297.86
  L 432.57 298.53
  Q 433.12 298.57 433.20 299.12
  L 438.77 335.81
  Z"
/>
<path fill="#f37f74" d="
  M 374.47 380.65
  Q 372.46 368.12 365.95 357.63
  Q 365.12 356.29 364.21 353.58
  Q 362.40 348.18 356.14 346.15
  Q 361.30 342.69 361.64 336.17
  A 1.53 1.53 0.0 0 0 359.17 334.89
  L 355.33 337.90
  A 0.86 0.86 0.0 0 1 354.42 338.01
  Q 346.40 334.31 339.65 328.61
  A 0.51 0.51 0.0 0 0 338.92 328.70
  C 335.51 333.20 331.61 337.70 326.14 339.71
  Q 325.51 339.95 325.87 339.38
  L 329.40 333.91
  Q 329.83 333.24 329.05 333.43
  L 318.14 336.06
  A 0.94 0.92 55.4 0 1 317.38 335.91
  L 313.82 333.27
  A 0.61 0.61 0.0 0 0 312.96 333.40
  Q 311.52 335.44 312.25 337.96
  Q 313.76 343.19 318.37 345.00
  Q 316.89 345.60 312.76 347.75
  Q 307.60 350.44 305.74 354.82
  Q 303.85 359.27 303.77 359.42
  Q 297.97 370.23 295.53 382.69
  Q 286.00 369.06 295.47 354.70
  L 299.48 349.33
  L 302.15 344.79
  L 304.04 339.49
  Q 305.14 334.95 305.12 333.51
  Q 304.99 322.98 311.63 313.11
  C 317.22 304.79 328.99 297.18 338.04 305.28
  Q 338.42 305.62 338.89 305.43
  C 360.07 296.92 366.82 322.58 367.42 337.26
  Q 367.57 340.91 368.91 345.17
  C 370.57 350.44 375.15 357.05 376.21 361.76
  Q 378.37 371.36 374.47 380.65
  Z"
/>
<path fill="#f9a96c" d="
  M 43.29 303.67
  Q 66.15 306.60 89.77 306.91
  Q 92.22 309.73 94.60 310.70
  Q 96.30 311.58 96.80 313.69
  L 85.17 312.82
  L 58.16 310.30
  L 42.53 308.63
  L 43.29 303.67
  Z"
/>
<path fill="#f8c9c7" d="
  M 103.33 305.40
  Q 105.91 307.31 108.76 307.99
  Q 110.65 309.07 111.00 309.81
  A 0.52 0.51 76.5 0 1 110.55 310.55
  L 106.89 310.66
  Q 106.48 310.67 106.48 311.08
  C 106.52 313.28 110.07 313.79 111.42 315.19
  Q 103.00 320.73 96.80 313.69
  Q 96.30 311.58 94.60 310.70
  L 103.33 305.40
  Z"
/>
<path fill="#5b386d" d="
  M 177.20 305.35
  L 187.36 311.44
  A 0.31 0.31 0.0 0 1 187.31 311.99
  L 175.91 316.28
  Q 173.90 309.92 177.20 305.35
  Z"
/>
<path fill="#f9a96c" d="
  M 165.84 319.86
  L 151.94 318.87
  L 149.65 318.47
  L 149.72 315.31
  A 0.47 0.47 0.0 0 0 149.01 314.89
  L 147.61 315.71
  A 0.50 0.50 0.0 0 1 146.89 315.45
  L 146.46 314.28
  A 0.58 0.58 0.0 0 0 145.41 314.19
  L 144.52 315.76
  Q 144.24 316.24 144.03 315.73
  L 143.28 313.93
  A 0.70 0.70 0.0 0 0 141.99 313.92
  L 141.16 315.88
  A 0.54 0.54 0.0 0 1 140.60 316.20
  Q 137.80 315.86 135.78 317.33
  L 111.42 315.19
  C 110.07 313.79 106.52 313.28 106.48 311.08
  Q 106.48 310.67 106.89 310.66
  L 110.55 310.55
  A 0.52 0.51 76.5 0 0 111.00 309.81
  Q 110.65 309.07 108.76 307.99
  Q 137.72 309.44 166.17 312.42
  Q 166.70 312.48 166.63 313.00
  L 165.84 319.86
  Z"
/>
<path fill="#fafae0" d="
  M 85.17 312.82
  Q 84.40 315.41 84.70 314.34
  L 75.16 356.70
  Q 74.81 353.92 72.84 352.39
  Q 62.47 344.34 59.43 330.74
  Q 57.06 320.17 58.16 310.30
  L 85.17 312.82
  Z"
/>
<path fill="#736bb0" d="
  M 96.80 313.69
  Q 103.00 320.73 111.42 315.19
  L 135.78 317.33
  Q 134.50 319.83 134.59 322.40
  Q 134.61 323.01 135.21 322.95
  L 138.05 322.69
  Q 137.00 325.54 134.54 326.97
  A 0.77 0.75 46.9 0 1 133.71 326.93
  L 126.30 321.67
  Q 125.84 321.34 125.75 321.89
  L 125.21 325.14
  L 84.70 314.34
  Q 84.40 315.41 85.17 312.82
  L 96.80 313.69
  Z"
/>
<path fill="#b6bac4" d="
  M 461.18 390.23
  L 459.57 390.26
  L 461.39 313.33
  Q 461.40 313.00 461.54 313.28
  Q 461.59 313.38 461.58 313.50
  Q 461.38 351.79 461.18 390.23
  Z"
/>
<path fill="#f8c9c7" d="
  M 149.65 318.47
  C 146.71 321.34 143.02 321.71 138.05 322.69
  L 135.21 322.95
  Q 134.61 323.01 134.59 322.40
  Q 134.50 319.83 135.78 317.33
  Q 137.80 315.86 140.60 316.20
  A 0.54 0.54 0.0 0 0 141.16 315.88
  L 141.99 313.92
  A 0.70 0.70 0.0 0 1 143.28 313.93
  L 144.03 315.73
  Q 144.24 316.24 144.52 315.76
  L 145.41 314.19
  A 0.58 0.58 0.0 0 1 146.46 314.28
  L 146.89 315.45
  A 0.50 0.50 0.0 0 0 147.61 315.71
  L 149.01 314.89
  A 0.47 0.47 0.0 0 1 149.72 315.31
  L 149.65 318.47
  Z"
/>
<path fill="#5c4583" d="
  M 84.70 314.34
  L 125.21 325.14
  L 128.75 375.80
  L 130.11 415.19
  Q 130.13 415.74 129.63 415.96
  L 128.18 416.59
  L 120.01 416.90
  L 117.97 416.52
  Q 117.44 416.41 117.39 415.88
  L 115.43 394.79
  L 114.34 379.54
  Q 115.11 377.39 114.07 374.89
  Q 113.55 373.34 113.69 371.71
  L 108.98 334.55
  Q 108.92 334.10 108.48 333.99
  L 98.77 331.61
  Q 98.11 331.45 97.94 332.10
  L 88.26 369.71
  L 80.98 392.68
  Q 77.00 404.25 72.17 415.40
  Q 71.58 416.74 70.03 416.26
  L 62.19 414.30
  Q 62.39 408.52 64.49 401.80
  L 75.16 356.70
  L 84.70 314.34
  Z"
/>
<path fill="#fafae0" d="
  M 149.65 318.47
  L 151.94 318.87
  L 151.89 376.29
  Q 143.52 372.90 132.31 373.55
  Q 131.83 373.58 131.45 373.87
  L 129.05 375.67
  Q 129.56 376.00 128.75 375.80
  L 125.21 325.14
  L 125.75 321.89
  Q 125.84 321.34 126.30 321.67
  L 133.71 326.93
  A 0.77 0.75 46.9 0 0 134.54 326.97
  Q 137.00 325.54 138.05 322.69
  C 143.02 321.71 146.71 321.34 149.65 318.47
  Z"
/>
<path fill="#45495e" d="
  M 165.84 319.86
  Q 166.32 319.76 165.53 320.16
  A 0.42 0.42 0.0 0 0 165.31 320.53
  L 165.28 394.23
  A 0.69 0.68 0.4 0 0 165.96 394.91
  Q 234.14 395.11 302.07 394.70
  Q 302.30 394.70 302.41 394.61
  Q 302.55 394.48 302.57 394.26
  L 306.13 395.94
  L 306.72 400.53
  Q 306.56 400.90 306.18 401.14
  Q 305.77 401.41 305.31 401.22
  C 298.50 398.41 288.60 394.96 281.92 397.26
  Q 275.12 399.60 273.80 407.93
  Q 216.56 408.05 159.61 407.88
  Q 155.68 407.87 154.05 406.47
  Q 151.47 404.26 151.94 399.66
  L 151.89 376.29
  L 151.94 318.87
  L 165.84 319.86
  Z"
/>
<path fill="#36364c" d="
  M 168.24 319.45
  L 168.24 388.85
  A 0.32 0.32 0.0 0 0 168.56 389.17
  L 295.74 389.12
  L 302.57 394.26
  Q 302.55 394.48 302.41 394.61
  Q 302.30 394.70 302.07 394.70
  Q 234.14 395.11 165.96 394.91
  A 0.69 0.68 0.4 0 1 165.28 394.23
  L 165.31 320.53
  A 0.42 0.42 0.0 0 1 165.53 320.16
  Q 166.32 319.76 165.84 319.86
  L 168.24 319.45
  Z"
/>
<path fill="#f8c9c7" d="
  M 356.14 346.15
  L 352.90 346.10
  Q 352.40 346.10 352.13 346.51
  Q 343.80 359.35 329.33 354.21
  Q 322.47 351.77 318.37 345.00
  Q 313.76 343.19 312.25 337.96
  Q 311.52 335.44 312.96 333.40
  A 0.61 0.61 0.0 0 1 313.82 333.27
  L 317.38 335.91
  A 0.94 0.92 55.4 0 0 318.14 336.06
  L 329.05 333.43
  Q 329.83 333.24 329.40 333.91
  L 325.87 339.38
  Q 325.51 339.95 326.14 339.71
  C 331.61 337.70 335.51 333.20 338.92 328.70
  A 0.51 0.51 0.0 0 1 339.65 328.61
  Q 346.40 334.31 354.42 338.01
  A 0.86 0.86 0.0 0 0 355.33 337.90
  L 359.17 334.89
  A 1.53 1.53 0.0 0 1 361.64 336.17
  Q 361.30 342.69 356.14 346.15
  Z"
/>
<path fill="#fdc77a" d="
  M 226.36 351.73
  A 20.87 20.87 0.0 0 1 205.49 372.60
  A 20.87 20.87 0.0 0 1 184.62 351.73
  A 20.87 20.87 0.0 0 1 205.49 330.86
  A 20.87 20.87 0.0 0 1 226.36 351.73
  Z
  M 223.93 351.74
  A 18.47 18.47 0.0 0 0 205.46 333.27
  A 18.47 18.47 0.0 0 0 186.99 351.74
  A 18.47 18.47 0.0 0 0 205.46 370.21
  A 18.47 18.47 0.0 0 0 223.93 351.74
  Z"
/>
<path fill="#fafae0" d="
  M 113.69 371.71
  Q 113.06 371.07 112.99 370.05
  Q 112.95 369.54 112.48 369.36
  Q 103.04 365.77 92.99 364.47
  A 0.82 0.81 -66.5 0 0 92.25 364.77
  L 88.26 369.71
  L 97.94 332.10
  Q 98.11 331.45 98.77 331.61
  L 108.48 333.99
  Q 108.92 334.10 108.98 334.55
  L 113.69 371.71
  Z"
/>
<circle fill="#fef7eb" cx="205.46" cy="351.74" r="18.47"/>
<path fill="#fdc77a" d="
  M 304.04 339.49
  L 302.15 344.79
  L 235.32 344.94
  A 0.54 0.54 0.0 0 1 234.78 344.40
  L 234.79 340.00
  Q 234.80 339.45 235.35 339.45
  L 304.04 339.49
  Z"
/>
<path fill="#9468ac" d="
  M 318.37 345.00
  Q 322.47 351.77 329.33 354.21
  Q 343.80 359.35 352.13 346.51
  Q 352.40 346.10 352.90 346.10
  L 356.14 346.15
  Q 362.40 348.18 364.21 353.58
  Q 365.12 356.29 365.95 357.63
  Q 372.46 368.12 374.47 380.65
  L 375.09 389.07
  Q 372.54 392.20 368.31 394.42
  L 363.14 395.94
  L 367.22 372.78
  Q 365.76 370.63 364.50 370.64
  Q 334.29 370.81 304.08 370.63
  Q 303.57 370.63 303.18 370.96
  Q 302.25 371.74 302.24 373.14
  L 306.13 395.94
  L 302.57 394.26
  L 295.74 389.12
  L 295.53 382.69
  Q 297.97 370.23 303.77 359.42
  Q 303.85 359.27 305.74 354.82
  Q 307.60 350.44 312.76 347.75
  Q 316.89 345.60 318.37 345.00
  Z"
/>
<path fill="#fdc77a" d="
  M 299.48 349.33
  L 295.47 354.70
  L 235.45 354.72
  Q 234.76 354.72 234.77 354.03
  L 234.80 349.79
  Q 234.80 349.30 235.30 349.30
  L 299.48 349.33
  Z"
/>
<rect fill="#fdc77a" x="234.80" y="359.02" width="52.96" height="5.46" rx="0.49"/>
<path fill="#b6bac4" d="
  M 367.22 372.78
  L 302.24 373.14
  Q 302.25 371.74 303.18 370.96
  Q 303.57 370.63 304.08 370.63
  Q 334.29 370.81 364.50 370.64
  Q 365.76 370.63 367.22 372.78
  Z"
/>
<path fill="#f4f5f6" d="
  M 367.22 372.78
  L 363.14 395.94
  L 362.12 401.89
  L 361.10 406.69
  Q 360.99 407.20 360.47 407.20
  Q 341.68 407.19 322.86 407.20
  C 318.21 407.21 312.43 403.88 308.09 402.14
  C 307.28 401.81 307.02 401.28 306.72 400.53
  L 306.13 395.94
  L 302.24 373.14
  L 367.22 372.78
  Z
  M 341.91 389.09
  A 6.91 6.91 0.0 0 0 335.00 382.18
  A 6.91 6.91 0.0 0 0 328.09 389.09
  A 6.91 6.91 0.0 0 0 335.00 396.00
  A 6.91 6.91 0.0 0 0 341.91 389.09
  Z"
/>
<path fill="#8f919e" d="
  M 114.07 374.89
  Q 115.11 377.39 114.34 379.54
  L 114.07 374.89
  Z"
/>
<path fill="#eef8f7" d="
  M 128.75 375.80
  Q 129.56 376.00 129.05 375.67
  Q 128.62 383.33 130.59 390.72
  Q 131.64 394.68 132.10 398.90
  Q 132.24 400.24 133.57 400.46
  C 137.75 401.15 141.85 400.34 146.30 400.43
  Q 149.41 400.49 151.94 399.66
  Q 151.47 404.26 154.05 406.47
  Q 155.68 407.87 159.61 407.88
  Q 216.56 408.05 273.80 407.93
  C 273.72 411.55 274.69 414.59 278.36 416.00
  Q 291.82 421.14 305.82 425.63
  L 302.37 430.19
  A 0.58 0.58 0.0 0 0 302.94 431.11
  Q 307.59 430.29 312.36 427.85
  L 335.26 435.06
  A 0.65 0.64 -67.5 0 0 336.02 434.74
  L 337.61 431.64
  C 343.11 432.56 347.92 433.10 353.22 435.29
  Q 359.40 437.85 366.20 439.98
  A 0.84 0.84 0.0 0 0 367.07 438.61
  L 355.05 425.42
  Q 375.07 423.18 394.48 419.65
  C 399.40 418.76 400.12 412.04 399.28 408.24
  Q 398.90 406.54 398.61 404.86
  L 399.35 404.22
  Q 405.77 403.66 412.50 403.30
  Q 413.40 403.25 413.34 402.53
  C 415.89 403.66 420.41 402.37 423.99 402.05
  Q 431.43 401.37 436.78 406.35
  L 431.64 408.97
  A 0.76 0.75 -60.0 0 0 432.02 410.40
  L 466.67 408.41
  Q 467.43 408.37 467.34 407.61
  L 466.95 404.25
  Q 466.88 404.65 467.05 404.98
  Q 467.29 405.45 467.82 405.46
  C 486.36 405.71 496.56 407.06 513.13 408.13
  Q 528.75 409.15 560.00 413.13
  L 560.00 446.00
  L 0.00 446.00
  L 0.00 412.47
  Q 7.41 410.96 18.50 410.01
  Q 40.91 408.10 51.72 407.42
  C 55.05 407.20 58.46 406.64 61.89 406.35
  Q 62.42 406.31 62.73 405.88
  Q 63.98 404.17 64.49 401.80
  Q 62.39 408.52 62.19 414.30
  L 57.96 425.25
  Q 57.52 426.38 58.68 426.72
  Q 69.44 429.91 80.55 431.60
  A 0.44 0.44 0.0 0 0 80.87 430.80
  L 69.81 422.78
  A 1.16 1.16 0.0 0 1 69.33 421.67
  L 70.03 416.26
  Q 71.58 416.74 72.17 415.40
  Q 77.00 404.25 80.98 392.68
  Q 80.56 394.69 79.21 398.37
  Q 77.48 403.05 82.25 403.62
  Q 98.15 405.51 111.35 400.17
  Q 114.72 398.80 115.43 394.79
  L 117.39 415.88
  Q 117.44 416.41 117.97 416.52
  L 120.01 416.90
  L 118.61 427.64
  Q 118.49 428.57 119.42 428.60
  Q 130.63 429.00 141.77 427.68
  A 0.48 0.48 0.0 0 0 141.89 426.75
  L 129.15 421.88
  Q 128.73 421.71 128.68 421.27
  L 128.18 416.59
  L 129.63 415.96
  Q 130.13 415.74 130.11 415.19
  L 128.75 375.80
  Z"
/>
<circle fill="#b6bac4" cx="335.00" cy="389.09" r="6.91"/>
<path fill="#443754" d="
  M 399.68 385.78
  L 410.61 385.98
  L 413.34 402.53
  Q 413.40 403.25 412.50 403.30
  Q 405.77 403.66 399.35 404.22
  L 399.68 385.78
  Z"
/>
<path fill="#b6bac4" d="
  M 449.95 389.84
  Q 450.48 392.22 449.48 392.80
  Q 449.53 391.28 448.71 389.99
  Q 449.29 389.37 449.95 389.84
  Z"
/>
<path fill="#443754" d="
  M 459.57 390.26
  L 461.18 390.23
  Q 463.63 389.80 464.98 391.59
  L 466.95 404.25
  L 467.34 407.61
  Q 467.43 408.37 466.67 408.41
  L 432.02 410.40
  A 0.76 0.75 -60.0 0 1 431.64 408.97
  L 436.78 406.35
  L 448.40 401.79
  Q 448.92 401.58 449.05 401.04
  Q 450.02 397.04 449.48 392.80
  Q 450.48 392.22 449.95 389.84
  L 459.57 390.26
  Z"
/>
<path fill="#5c4583" d="
  M 306.72 400.53
  C 307.02 401.28 307.28 401.81 308.09 402.14
  C 312.43 403.88 318.21 407.21 322.86 407.20
  Q 341.68 407.19 360.47 407.20
  Q 360.99 407.20 361.10 406.69
  L 362.12 401.89
  Q 368.37 400.40 376.00 399.35
  C 384.29 398.21 392.63 397.37 398.02 404.93
  Q 398.33 405.36 398.61 404.86
  Q 398.90 406.54 399.28 408.24
  C 400.12 412.04 399.40 418.76 394.48 419.65
  Q 375.07 423.18 355.05 425.42
  Q 350.51 421.95 343.14 421.57
  Q 342.68 421.55 342.48 421.95
  L 337.61 431.64
  L 336.02 434.74
  A 0.65 0.64 -67.5 0 1 335.26 435.06
  L 312.36 427.85
  L 305.82 425.63
  Q 291.82 421.14 278.36 416.00
  C 274.69 414.59 273.72 411.55 273.80 407.93
  Q 275.12 399.60 281.92 397.26
  C 288.60 394.96 298.50 398.41 305.31 401.22
  Q 305.77 401.41 306.18 401.14
  Q 306.56 400.90 306.72 400.53
  Z"
/>
<path fill="#443754" d="
  M 62.19 414.30
  L 70.03 416.26
  L 69.33 421.67
  A 1.16 1.16 0.0 0 0 69.81 422.78
  L 80.87 430.80
  A 0.44 0.44 0.0 0 1 80.55 431.60
  Q 69.44 429.91 58.68 426.72
  Q 57.52 426.38 57.96 425.25
  L 62.19 414.30
  Z"
/>
<path fill="#443754" d="
  M 128.18 416.59
  L 128.68 421.27
  Q 128.73 421.71 129.15 421.88
  L 141.89 426.75
  A 0.48 0.48 0.0 0 1 141.77 427.68
  Q 130.63 429.00 119.42 428.60
  Q 118.49 428.57 118.61 427.64
  L 120.01 416.90
  L 128.18 416.59
  Z"
/>
<path fill="#443754" d="
  M 355.05 425.42
  L 367.07 438.61
  A 0.84 0.84 0.0 0 1 366.20 439.98
  Q 359.40 437.85 353.22 435.29
  C 347.92 433.10 343.11 432.56 337.61 431.64
  L 342.48 421.95
  Q 342.68 421.55 343.14 421.57
  Q 350.51 421.95 355.05 425.42
  Z"
/>
<path fill="#443754" d="
  M 305.82 425.63
  L 312.36 427.85
  Q 307.59 430.29 302.94 431.11
  A 0.58 0.58 0.0 0 1 302.37 430.19
  L 305.82 425.63
  Z"
/>
</svg>
